<svg width="439" height="400" viewBox="0 0 439 400" fill="none" xmlns="http://www.w3.org/2000/svg">
<path opacity="0.06" d="M753.241 52.938C750.078 55.8911 747.064 57.7012 744.254 60.36C746.387 57.347 748.661 54.824 751.341 51.8133C762.205 40.4814 775.016 30.6445 789.023 22.797C785.836 24.4116 782.498 25.7985 779.401 27.6315C776.297 29.4531 773.125 31.1965 770.053 33.1055C775.734 29.2116 781.932 25.3086 787.488 22.199C790.666 20.1889 793.799 18.5375 796.894 16.8976L801.502 14.4044C803.044 13.5834 804.671 12.9394 806.284 12.1965C804.586 12.7209 802.848 13.1303 801.192 13.7283L796.213 15.5452L791.188 17.4335C789.506 18.0913 787.898 18.9561 786.223 19.7588C775.216 24.9314 764.768 31.944 755.195 39.7891C744.365 48.6693 734.52 58.9202 726.428 70.4936C718.283 81.9014 711.731 95.0273 706.998 107.383C704.092 114.678 702.725 121.79 700.482 128.694C696.831 133.609 693.101 138.333 689.155 142.349L689.422 142.016C685.465 148.616 680.852 154.152 675.611 157.835C670.356 161.561 664.539 163.575 657.991 163.969C651.379 164.385 643.828 163.088 635.823 161.319C627.78 159.548 619.235 157.195 609.7 155.666C600.9 154.286 590.82 153.628 580.372 156.218C577.788 156.8 575.251 157.867 572.708 158.741C570.237 159.801 567.849 160.953 565.53 162.356C560.836 165.082 556.656 168.764 553.021 172.734C549.441 176.782 546.659 181.211 544.314 185.66C542.19 189.961 540.402 194.421 538.967 198.999C536.193 207.808 534.656 216.254 533.229 224.382C530.949 237.841 528.998 250.339 525.798 261.434C522.643 272.545 518.203 281.782 512.124 287.58C506.103 293.493 498.52 296.527 488.325 297.297C478.202 298.086 466.392 296.571 454.011 294.554C441.564 292.585 428.512 289.972 414.139 288.873C406.96 288.344 399.43 288.196 391.536 289.027C383.672 289.855 375.375 291.741 367.43 295.306C360.797 298.307 354.459 302.275 349.084 307.3C343.661 312.284 339.14 318.133 335.638 324.17C328.579 336.362 325.388 348.805 323.09 360.309C320.81 371.901 319.57 382.838 317.966 393.153C316.367 403.374 314.526 413.075 311.42 420.982C305.307 436.914 294.797 444.497 277.879 445.224C269.431 445.633 259.676 444.272 249.449 442.478C239.203 440.677 228.307 438.352 216.571 436.822C204.841 435.373 191.853 434.598 178.033 437.627C171.179 439.145 164.2 441.71 157.878 445.429C151.532 449.088 145.789 453.831 141.031 459.065C131.456 469.634 125.791 481.444 121.346 492.385C116.924 503.409 113.707 513.968 110.222 523.678C106.77 533.37 103.073 542.282 98.4738 549.187C93.8723 556.133 88.5897 560.721 82.0049 563.585C75.3786 566.391 66.9325 567.439 57.3129 567.361C47.6934 567.315 37.1097 566.223 25.6542 565.62C13.4692 564.999 -0.254883 564.822 -14.7452 568.888C-16.5444 569.424 -18.3437 569.891 -20.1291 570.517L-25.4485 572.766C-29.0676 574.137 -32.2496 576.354 -35.565 578.309C-37.2561 579.261 -38.7562 580.436 -40.2241 581.651L-44.66 585.271C-47.4393 587.801 -49.9173 590.554 -52.4366 593.261C-61.7939 604.49 -67.6448 616.498 -72.6375 627.692C-77.5911 638.938 -81.6658 649.679 -86.2052 659.339C-90.717 668.999 -95.6982 677.509 -101.634 683.893C-107.517 690.391 -115.151 695.198 -123.94 699.046C-132.729 702.884 -142.795 705.462 -153.445 707.44C-164.098 709.441 -175.326 710.863 -186.949 712.445C-195.225 713.607 -203.791 714.74 -213.335 716.907C-222.6 718.986 -231.663 722.041 -240.387 725.785C-249.1 729.538 -257.468 734.079 -265.045 739.7C-272.591 745.316 -279.549 751.6 -284.891 759.081C-287.038 761.851 -288.653 764.937 -290.254 767.614C-291.665 770.489 -292.76 773.33 -293.759 775.896C-294.568 778.587 -295.093 781.161 -295.56 783.47C-296.103 785.756 -295.951 788.01 -296.036 789.931C-296.184 792.994 -295.708 796.055 -294.637 798.928C-293.855 801.049 -292.951 802.295 -291.98 802.774C-290.04 803.728 -287.823 801.612 -285.517 797.383L-284.654 795.697L-283.522 793.857C-282.747 792.576 -281.958 791.177 -281.157 789.671C-279.188 786.759 -277.149 783.415 -274.209 780.046C-267.866 772.426 -259.014 767.012 -247.865 760.436C-239.133 755.365 -229.397 751.282 -219.197 748.292C-208.92 745.21 -198.635 743.603 -187.131 742.225C-164.538 739.343 -140.649 737.579 -116.9 729.89C-108.861 727.19 -100.564 723.639 -92.7486 718.448C-84.9352 713.301 -77.7406 706.608 -71.7241 699.11C-65.8272 691.584 -61.2946 683.562 -57.2614 675.65C-53.3385 667.718 -50.0277 659.935 -46.7767 652.462C-40.7533 638.547 -34.7529 625.417 -26.9095 616.307C-26.0122 615.028 -24.8963 614.175 -23.8954 613.126C-22.8762 612.121 -21.9168 611.021 -20.7641 610.292L-17.5154 607.792C-16.319 607.16 -15.1456 606.511 -13.9952 605.835C-9.22797 603.461 -4.09491 601.849 1.99524 601.212C8.08545 600.596 14.7484 600.619 21.8533 601.051L44.608 602.886C52.7067 603.441 61.2794 603.767 70.4457 603.091C79.6304 602.348 89.625 600.124 99.0674 595.669C106.961 592.1 114.124 586.697 119.89 580.524C125.697 574.36 130.16 567.564 133.717 560.859C140.767 547.377 144.639 534.269 148.596 522.211C152.478 510.193 156.23 498.912 161.416 490.209C166.575 481.453 172.794 475.655 181.116 472.628C191.244 468.681 205.301 469.979 220.04 472.318C231.383 474.07 243.37 476.658 256.409 478.268C262.934 479.059 269.76 479.595 276.945 479.406C284.112 479.211 291.705 478.249 299.247 475.885C306.789 473.539 314.124 469.73 320.391 464.746C326.711 459.787 332.042 453.543 336.02 446.963C344.013 433.658 347.14 419.915 349.425 407.293C351.638 394.588 352.8 382.522 354.67 371.253C356.511 360.029 359.042 349.536 363.455 341.383C367.785 333.278 374.123 327.438 382.275 324.097C390.438 320.794 400.727 320.102 411.693 320.819C428.525 321.907 446.536 326.219 466.189 328.243C476.013 329.239 486.47 329.623 497.422 327.852C508.289 326.086 519.832 321.574 528.738 313.931C533.218 310.327 537.101 305.932 540.265 301.318C543.511 296.713 545.966 291.812 547.938 286.938C551.925 277.145 553.863 267.46 555.37 258.134C558.239 239.582 558.862 221.737 563.008 206.368C565.116 198.792 568.098 192.051 572.632 187.355C574.883 184.972 577.427 182.925 580.501 181.43C581.23 180.975 582.001 180.657 582.793 180.393L585.13 179.473C586.755 178.99 588.443 178.626 590.153 178.265C597.168 177.191 605.228 178.026 613.662 179.576C622.129 181.096 630.992 183.353 640.623 184.687C646.642 185.584 653.084 185.903 659.655 185.448C666.283 184.896 673.029 183.01 679.188 180.147C685.318 177.076 690.72 172.879 695.301 168.166C699.824 163.401 703.4 158.15 706.588 152.858C718.875 131.555 723.987 108.885 734.854 90.6206C756.4 53.3336 796.13 26.6586 838.913 19.7173C849.786 18.1465 860.435 16.4468 871.4 16.8516C863.318 14.5287 855.493 12.4909 845.7 11.9182C844.274 11.8423 841.591 12.0056 838.586 12.3184L829.542 13.864C832.825 13.2407 836.219 12.53 839.567 12.0102C842.807 11.6622 846.041 11.2458 849.264 10.7613C853.535 10.2553 857.648 10.0023 861.725 9.55151C865.798 9.41354 869.847 9.36752 874 9.29852C856.82 6.12457 838.856 6.12 820.891 9.35373C820.224 9.50784 816.63 11.2972 813.593 12.5093C811.506 13.4132 809.215 14.3354 806.87 15.2669L803.327 16.663L799.917 18.3052C796.547 20.4786 793.132 22.3807 789.858 24.8716C786.547 27.2773 782.99 29.5129 779.403 32.3694C777.574 33.7402 775.66 35.1294 773.628 36.5508C771.677 38.0803 769.63 39.6764 767.474 41.3646L764.099 43.8831L760.691 46.7396C758.397 48.7567 755.715 50.5805 753.241 52.938ZM375.488 309.041C382.241 305.853 390.572 304.48 398.367 304.172C399.844 304.121 401.273 304.443 402.701 304.715C395.679 305.037 388.678 306.042 381.939 308.206C378.168 309.503 374.301 311.01 370.826 313.121C369.26 314.078 367.773 315.16 366.381 316.357L364.223 318.101L362.134 320.033C356.934 324.738 352.827 330.573 349.843 336.914C346.813 343.239 344.747 350.001 343.201 356.85C342.897 356.929 342.299 357.177 342.327 357.064C344.052 349.382 346.344 341.747 349.997 334.69C353.693 327.696 358.692 321.196 365.206 316.474C366.137 315.801 367.138 315.141 368.167 314.508L371.411 312.893C372.568 311.477 372.936 310.329 375.488 309.041ZM559.955 184.825C562.491 181.395 565.491 178.35 568.956 175.938C565.691 178.895 563.494 182.647 561.055 186.071C554.044 196.352 551.217 208.875 549.112 221.146C547.045 233.508 545.828 246.052 543.472 258.465C541.107 270.8 537.633 283.357 530.22 293.877C522.926 304.432 511.307 311.746 498.8 314.255C489.673 316.263 480.297 316.141 471.104 315.458C461.894 314.683 452.789 313.209 443.724 311.7C440.269 311.116 436.909 310.2 433.502 309.453C436.999 309.83 440.492 310.074 443.994 310.642C452.99 312.086 462.016 313.565 471.097 314.349C480.155 315.026 489.367 315.164 498.172 313.144C500.646 312.68 503.043 311.619 505.192 310.626C507.267 309.421 509.142 308.365 510.412 307.215C511.804 306.081 509.814 306.283 509.382 305.869C514.404 304.124 519.675 300.773 523.205 297.958C526.364 295.513 528.26 294.429 530.581 292.415C532.396 288.367 533.855 284.275 534.768 280.045C535.217 277.794 535.459 275.492 535.714 273.231L537 270.549C536.322 273.907 535.551 277.265 534.479 280.521C538.799 275.222 541.243 267.156 542.513 258.688C543.857 250.197 544.225 241.199 545.435 233.016L543.166 233.568L543.7 229.853L545.439 233.37C546.613 225.012 547.894 216.61 549.921 208.33C552.027 200.096 554.937 191.869 559.955 184.825ZM631.659 174.408C617.926 171.365 604.142 166.965 589.943 168.313C597.851 167.246 605.913 168.074 613.78 169.369C621.667 170.673 629.457 172.481 637.293 173.753C639.679 174.167 642.229 174.638 644.672 174.972C653.19 176.186 662.043 176.471 670.289 173.723C661.408 177.458 651.312 177.614 642.949 176.966C637.841 176 634.839 175.128 631.659 174.408ZM316.001 448.587C323.088 440.948 327.563 431.42 330.284 421.599C332.755 413.078 334.147 404.262 335.369 395.471L337.44 379.528C337.256 384.484 337.444 388.926 336.855 394.515C336.376 399.099 335.717 403.662 334.881 408.195C333.972 413.133 332.811 418.558 330.876 424.635C328.347 431.572 323.633 441.282 316.001 448.584V448.587ZM699.081 146.303C703.114 137.919 705.942 129.334 709.193 120.099C709.994 117.799 712.517 113.719 714.266 110.449C711.839 118.232 709.632 126.022 706.441 135.033C705.212 137.146 703.919 139.222 702.564 141.257C701.412 143.106 700.238 144.706 699.083 146.305L699.081 146.303ZM176.935 448.251C184.196 445.951 192.332 444.681 198.82 444.946C210.455 445.399 220.475 447.931 230.546 450.335C226.986 449.902 223.39 449.518 220.839 449.277C205.999 446.418 191.651 444.833 176.935 448.251ZM365.378 309.161C373.15 303.802 381.951 300.078 391.637 298.788C396.351 298.047 402.635 298.967 407.949 299.657C400.161 299.609 392.189 300.382 385.931 301.909C377.273 303.399 371.05 305.885 365.378 309.161ZM365.04 301.727C358.5 305.32 352.652 310.048 347.768 315.688C342.904 321.291 339.193 327.599 336.379 333.936C335.68 335.546 334.93 337.156 334.122 338.775L331.973 343.644C333.43 338.8 335.249 333.911 337.511 329.223C339.899 324.573 342.518 320.065 345.706 316.224C352.669 308.625 358.826 304.816 365.04 301.727ZM187.687 451.498C190.754 450.875 194.076 450.197 196.954 450.21C208.371 450.256 219.226 452.432 229.947 454.612C223.958 453.716 217.946 452.766 209.503 452.124C203.546 451.353 195.661 450.755 187.687 451.498ZM456.758 305.568C462.68 306.189 468.662 306.366 474.203 306.789C480.392 307.259 486.238 307.857 492.064 307.495C486.864 308.415 481.397 308.767 475.498 308.728C468.695 307.928 462.752 306.815 456.758 305.568ZM654.998 165.735L657.579 165.512L660.007 165.006C660.803 164.829 661.629 164.741 662.386 164.537C663.131 164.295 663.868 164.081 664.613 163.907C669.638 162.609 674.343 160.464 678.59 157.032C675.56 159.826 672.417 162.444 667.772 164.277C666.847 164.675 665.823 164.82 664.806 165.008C663.775 165.162 662.804 165.496 661.709 165.551C659.533 165.696 657.354 165.924 654.998 165.735ZM520.609 280.287C521.136 278.734 521.599 276.754 522.073 275.632C525.897 267.718 528.407 258.147 530.494 248.014C529.826 253.143 529.201 258.269 527.537 265.77C525.959 270.229 523.58 275.774 520.612 280.287H520.609ZM332.327 365.772C331.734 368.992 330.673 371.89 329.879 374.923C330.418 369.661 330.922 364.408 331.989 358.883C332.656 355.919 333.568 352.554 337.104 343.764C335.77 348.167 334.695 352.644 333.883 357.172L332.327 365.774V365.772ZM379.53 295.409C384.868 293.73 390.217 292.812 395.445 292.359C400.536 292.109 405.499 292.376 410.248 292.886C405.285 292.762 400.141 292.971 394.331 293.592C389.407 293.799 384.5 294.284 379.53 295.409ZM727.647 77.2302C728.989 74.6083 730.675 72.2715 732.198 69.7622C733.756 67.276 735.38 64.7713 737.426 62.446C739.494 60.0863 742.497 57.2757 745.4 55.0402C742.796 57.9726 740.674 61.3329 737.932 64.9599C735.792 67.0023 734.219 69.2493 732.472 71.225C730.836 73.2812 729.044 75.112 727.647 77.2302ZM-32.0908 589.551C-35.0358 591.759 -38.1143 593.599 -40.5278 595.977C-41.8071 597.118 -43.0748 598.243 -44.3471 599.372C-45.5205 600.568 -46.618 601.824 -47.7684 603.082C-46.618 601.576 -45.6171 599.894 -44.3079 598.429C-43.0734 597.016 -41.7919 595.644 -40.4657 594.317C-34.7667 589.413 -28.8306 584.438 -16.3167 580.342L-22.4713 583.307C-24.2797 584.098 -25.5704 585.255 -26.8174 586C-29.1965 587.677 -30.9703 588.599 -32.0908 589.551ZM505.233 303.39C506.469 302.833 507.562 301.982 508.675 301.251C509.821 300.575 510.81 299.71 511.855 299.066C513.038 298.401 514.112 297.677 515.221 296.992L516.91 295.991L518.472 294.809L517.22 296.334L515.759 297.774L514.177 299.349L512.258 300.892C510.992 301.548 509.771 301.989 508.602 302.364C507.454 302.79 506.379 303.162 505.233 303.388V303.39ZM324.012 380.991C324.668 376.437 325.572 371.853 326.527 367.163C326.251 369.981 326.219 372.612 325.83 375.512C325.17 380.637 324.394 385.807 323.651 390.818L323.002 391.318C323.341 387.927 323.513 384.459 324.015 380.991H324.012ZM330.494 361.634C330.149 363.364 329.396 364.884 328.888 366.48C329.624 361.662 330.406 356.786 331.676 351.811C332.074 350.174 332.831 348.449 334.764 343.885C332.194 352.198 331.506 356.979 330.494 361.634ZM54.9684 586.193C51.1721 586.276 47.1871 586.396 43.6324 586.106C40.3884 585.83 37.5999 585.163 34.6226 584.648C38.5984 584.834 42.5764 585.089 48.3122 585.26C50.0079 585.485 52.4744 585.94 54.9684 586.193ZM536.032 254.663C534.957 261.738 533.593 268.624 531.366 275.137C530.634 277.396 529.364 279.597 528.209 281.688C529.41 278.78 530.363 275.731 530.54 275.036C533.581 266.853 534.808 260.746 536.032 254.663ZM429.65 294.853C431.866 294.979 434.183 294.928 436.293 295.273C440.144 295.904 443.844 296.775 447.53 297.539L437.998 296.444C435.497 295.963 432.575 295.409 429.65 294.853ZM-1.24884 585.17C-3.82574 585.756 -6.43481 586.131 -8.89435 587.076L-12.6378 588.284C-13.894 588.67 -15.0443 589.342 -16.2637 589.846C-18.0054 590.637 -20.2349 591.072 -22.0618 592.111C-20.4489 590.846 -18.6037 590.007 -16.7078 589.052L-13.7881 587.58C-12.7367 587.196 -11.6576 586.805 -10.5349 586.4C-7.02386 585.572 -4.1156 585.411 -1.24884 585.17ZM547.098 212.153C546.652 214.338 545.789 216.182 545.203 218.193C545.716 214.676 546.298 211.15 547.121 207.624C547.807 205.26 548.304 202.783 551.755 194.804C548.306 204.655 548.062 208.558 547.098 212.153ZM570.645 162.853C566.117 164.96 561.901 167.803 558.133 171.14C558.835 170.208 559.555 169.353 560.507 168.559C562.702 166.634 565.155 165.017 568.252 163.196C569.855 162.414 571.542 161.42 573.622 160.613C575.725 159.889 578.062 158.881 580.784 158.21C574.268 160.671 572.372 161.975 570.645 162.853ZM536.722 224.301C536.43 225.904 536.08 227.282 535.753 228.761C536.071 225.999 536.404 223.183 536.841 220.378C537.023 219.306 537.435 218.262 538.098 215.998L536.722 224.301ZM698.066 141.979C698.271 142.002 696.962 144.75 696.336 146.284C695.216 147.623 693.667 149.323 692.942 149.822C692.616 149.98 694.061 147.453 695.071 144.693C696.43 143.412 697.675 141.93 698.066 141.979ZM732.686 74.9463C731.329 76.5218 729.771 78.3365 729.329 78.5872C729.012 78.7114 730.429 75.5995 731.262 74.6542C732.509 73.0489 733.77 71.9449 735.629 69.9968C734.41 72.0691 733.418 74.0471 732.686 74.9463ZM512.739 291.108C511.6 291.893 510.748 292.047 509.823 292.472C510.905 291.442 512.057 290.379 512.978 289.418C513.383 289.047 513.799 288.778 514.285 288.498C514.731 288.16 515.219 287.796 515.838 287.334C514.948 288.703 513.909 289.969 512.739 291.108ZM293.297 454.054C295.966 453.203 298.497 452.039 300.924 450.712C300.312 451.218 299.7 451.896 299.058 452.225C297.807 452.855 296.454 453.255 295.126 453.784C293.743 454.189 292.319 454.594 290.789 454.962C291.806 454.652 292.512 454.29 293.297 454.054ZM339.096 344.87L336.878 351.158C337.481 348.881 337.932 346.572 338.763 344.311C339.506 342.144 340.38 339.996 342.561 335.61C340.544 340.279 339.89 342.637 339.096 344.87ZM624.009 165.27C625.651 165.254 627.23 165.229 629.013 165.264C629.082 165.275 632.05 166.138 631.944 166.167C631.3 166.427 630.2 166.575 629.133 166.759C626.5 165.997 625.256 165.632 624.009 165.27ZM266.762 455.606C265.223 455.323 264.572 454.911 263.553 454.555C264.922 454.606 266.525 454.615 267.602 454.732C269.268 454.884 270.616 455.296 273.676 455.657C270.091 455.795 267.791 455.728 266.762 455.606ZM485.753 303.726C487.676 303.45 489.676 303.286 491.505 302.971C492.358 302.856 493.212 302.79 494.07 302.741L496.55 302.41L494.118 303.114L491.495 303.659C489.386 303.832 487.522 303.684 485.753 303.728V303.726ZM429.676 302.104C428.655 301.921 427.681 301.533 426.814 300.964C426.703 300.888 429.542 300.987 430.61 301.194C432.455 301.536 434.013 301.985 436.903 302.737C433.486 302.424 431.27 302.401 429.676 302.104ZM308.754 435.859C309.292 434.932 309.787 434.055 310.406 433.129C310.797 432.436 311.395 431.703 311.915 430.99C311.317 432.257 310.794 433.618 310.067 434.808L308.754 435.859ZM581.46 -73.2977C578.205 -71.1702 575.225 -70.0777 572.345 -68.1366C574.641 -70.5377 576.995 -72.4743 579.809 -74.7444C590.979 -83.314 603.461 -90.5819 616.702 -96.249C613.605 -95.3704 610.644 -94.11 607.627 -92.9463L603.109 -91.1776C601.611 -90.5635 600.168 -89.8206 598.696 -89.149C600.053 -89.8804 601.415 -90.6647 602.826 -91.3593C604.254 -92.0171 605.69 -92.6703 607.11 -93.3258C609.969 -94.5861 612.68 -96.0512 615.339 -97.0816C618.432 -98.3926 621.328 -99.7265 624.193 -101.028L632.982 -104.416L623.664 -102.45C620.604 -101.601 617.521 -100.688 614.357 -99.6507C604.132 -95.9615 593.885 -91.3202 584.47 -85.4461C562.944 -72.6031 544.054 -54.8244 530.443 -33.6049C526.385 -27.4043 524.353 -21.0081 521.599 -14.9454C517.669 -10.8974 513.742 -7.01971 509.766 -3.65256L510.04 -3.92856C508.006 -1.0007 505.839 1.57297 503.66 4.05002C501.405 6.33618 499.175 8.61087 496.764 10.2392C495.614 11.2098 494.335 11.7756 493.152 12.5921C491.87 13.1188 490.702 13.9261 489.379 14.2941C486.873 15.3866 484.186 15.8419 481.107 16.2605C474.994 17.0494 467.613 16.6216 459.305 16.6745C455.115 16.7205 450.654 16.8953 445.894 17.5715C441.117 18.2891 436.007 19.6392 431.077 21.9506C429.947 22.5256 428.772 23.0362 427.695 23.6963L424.524 25.7962C423.489 26.5276 422.408 27.2083 421.427 28.0087L418.639 30.6077C417.742 31.5023 416.759 32.3557 415.963 33.3055L413.669 36.2311C412.056 38.1861 410.885 40.2261 409.716 42.2869C405.115 50.5461 402.883 58.7316 401.056 66.2778C399.273 73.8492 397.98 80.9677 396.4 87.5133C394.853 94.059 392.971 99.9745 390.424 104.692C386.265 112.463 380.085 117.332 371.795 120.502C363.501 123.715 353.343 125.309 342.168 126.902C331.239 128.483 319.461 129.662 307.03 132.089C294.671 134.541 281.25 138.267 268.568 146.075C255.84 153.876 246.193 164.976 238.881 175.846C231.516 186.812 226.048 197.829 220.77 208.091C216.364 216.698 212.116 224.846 207.487 232.066C202.869 239.288 197.796 245.348 192.125 249.987C186.46 254.608 179.728 258.21 171.894 261.135C164.115 264.079 155.246 266.161 146.026 268.272C136.752 270.395 127.029 272.267 116.79 275.073C106.605 277.883 95.89 281.522 85.4514 287.481C80.2148 290.365 75.1968 294.133 70.4963 298.229C68.2462 300.435 66.0236 302.675 63.8425 304.94C61.9512 307.378 59.7839 309.825 58.2056 312.332C51.3723 322.365 47.1043 332.457 43.2758 341.466C39.4565 350.521 35.98 358.78 31.933 364.948C27.9343 371.342 23.6387 374.854 18.4642 377.223C13.2023 379.445 5.94104 380.135 -2.62476 379.832C-11.2757 379.498 -21.0011 378.258 -31.8585 377.854C-42.5801 377.421 -55.3839 378.157 -68.0129 383.293C-74.2572 385.841 -80.0552 389.475 -85.0226 393.565C-90.0383 397.663 -94.1199 402.224 -97.7413 406.755C-104.957 415.886 -110.078 425.007 -115.004 433.292C-119.889 441.68 -124.37 448.61 -129.874 455.615C-153.307 485.471 -187.541 508.238 -221.475 532.841L-323.041 606.148C-347.033 623.572 -373.041 642.949 -393.111 659.829C-424.25 686.018 -420.076 696.725 -388.475 682.042C-379.72 677.976 -370.087 674.075 -359.328 666.984C-325.986 645.019 -291.732 619.37 -257.735 597.454C-234.571 582.518 -209.789 564.99 -185.691 548.32C-162.998 532.567 -139.436 516.401 -118.28 495.6C-107.78 485.218 -97.8471 473.583 -89.6011 460.744C-81.5599 448.186 -75.2972 436.47 -68.2131 428.071C-65.3233 424.628 -62.4036 421.838 -59.4379 419.773C-56.4722 417.641 -53.4858 416.396 -49.8436 415.421C-48.118 414.848 -46.0082 414.628 -43.9836 414.271C-41.7518 414.119 -39.642 413.816 -37.1572 413.848C-32.4222 413.692 -27.0637 414.032 -21.4567 414.359C-10.2104 415.007 2.67859 416.346 17.4151 413.791C24.7753 412.473 32.4714 409.646 39.4174 405.515C46.3796 401.315 52.1154 395.593 56.6617 389.749C62.2319 382.481 66.1409 374.992 69.4541 367.955C72.7534 360.905 75.4614 354.173 78.105 348.069C82.1912 338.747 86.236 330.787 91.7717 325.405C97.2107 319.674 104.5 315.288 113.22 311.868C121.923 308.432 131.837 305.964 142.269 303.551C152.719 301.113 163.738 298.818 175.094 295.214C186.389 291.623 198.19 286.658 208.822 278.785C219.509 270.961 227.808 260.852 234.268 250.794C247.162 230.564 254.688 209.956 265.474 193.714C269.583 187.656 273.929 181.991 279.048 177.785C280.222 176.549 281.68 175.813 282.964 174.778L284.943 173.313L287.048 172.051C289.917 170.427 292.952 168.937 296.267 167.727C309.467 162.706 325.303 160.781 341.712 158.067C349.846 156.71 358.243 155.185 366.851 152.747C375.423 150.3 384.323 146.836 392.564 141.275C396.706 138.424 400.511 135.112 403.907 131.404C407.233 127.649 410.087 123.501 412.404 119.053C417.005 110.276 419.223 101.401 420.917 93.1045C422.587 84.7856 423.682 76.8484 425.256 69.5253C426.797 62.2115 428.875 55.5416 432.22 50.6794C433.086 49.5111 433.852 48.2116 434.926 47.3146L436.387 45.7737L438.12 44.5316C440.324 42.6917 442.931 41.5992 445.949 40.7206C451.97 38.9612 459.487 38.8416 467.692 38.7036C472.864 38.5931 478.37 38.4506 484.165 37.5697C489.94 36.7509 496.102 34.8649 501.499 31.9578C506.947 29.0828 511.735 25.2948 515.824 21.1687C519.901 17.0195 523.311 12.553 526.401 8.05658C532.573 -0.95929 537.375 -10.166 542.474 -18.7173C544.952 -23.0504 547.809 -26.8316 550.455 -30.9209L554.958 -36.6248L557.213 -39.479L559.674 -42.1585C585.512 -71.2691 623.148 -89.7608 661.928 -93.7213C666.879 -94.0732 671.734 -94.7747 676.616 -94.9173C681.503 -95.3727 686.371 -95.2278 691.311 -95.1174C687.699 -96.2467 684.179 -97.6474 680.447 -98.5904C676.715 -99.4253 672.79 -100.607 668.414 -101.093C665.858 -101.394 658.778 -100.998 653.818 -100.297C659.751 -101.343 666.187 -101.417 671.667 -102.013C675.537 -102.229 679.237 -102.434 682.895 -102.641L693.92 -102.608C678.611 -106.045 662.593 -107.128 646.276 -105.69C645.664 -105.621 642.378 -104.027 639.56 -103.197C635.623 -102.188 631.104 -100.555 626.853 -99.1999C620.431 -95.9523 614.364 -92.5001 607.255 -88.4107L604.503 -86.9227C603.587 -86.3707 602.655 -85.8049 601.698 -85.2299C599.779 -84.0914 597.757 -82.9391 595.601 -81.7662C593.441 -80.5932 591.294 -79.1442 588.913 -77.7964C586.538 -76.4118 584.012 -74.9997 581.458 -73.3L581.46 -73.2977ZM235.561 213.926C238.207 208.08 241.58 201.69 244.992 195.655C245.659 194.528 246.663 193.652 247.505 192.668C244.509 198.194 241.953 203.859 239.3 209.554L234.666 219.347C233.348 222.365 232.223 225.398 230.617 228.494C224.83 239.752 218.147 250.866 209.132 260.153C208.845 260.056 208.249 259.937 208.32 259.856C218.241 249.555 225.456 237.14 231.802 224.43C232.717 222.602 233.932 220.746 234.993 218.894C235.136 217.27 234.544 216.166 235.561 213.926ZM412.809 73.0765C413.629 69.4051 414.623 65.7747 415.788 62.1976C415.146 66.0524 415.105 69.9623 414.316 73.7504C412.045 84.7672 410.248 96.0439 406.125 106.748C403.914 112.015 401.211 117.171 397.49 121.58C393.809 126.008 389.315 129.741 384.389 132.678C374.478 138.589 363.218 141.445 352.098 143.488C340.928 145.523 329.672 146.735 318.548 148.6C302.431 151.314 285.937 155.452 273.011 165.643C271.704 166.492 270.522 167.49 269.305 168.456L265.614 171.34L268.881 167.925C269.969 166.772 271.074 165.622 272.415 164.737L277.408 161.11C279.186 160.075 280.926 158.962 282.785 158.072C286.436 156.16 290.265 154.617 294.157 153.297C301.943 150.624 310.001 148.945 318.012 147.46C322.48 146.641 327.128 145.049 330.105 143.918C331.69 143.317 329.852 142.839 329.56 142.308C334.741 142.151 340.592 141.809 344.814 141.852C348.546 141.894 350.481 142.45 353.235 142.717C356.94 141.345 360.589 139.825 364.172 138.161C366.011 137.137 367.826 136.128 369.561 135.01C370.442 134.883 371.323 134.743 372.186 134.557C369.448 135.923 366.581 137.096 363.669 138.211C369.835 138.51 377.112 136.284 383.621 132.093C390.199 127.947 395.548 121.797 399.473 115.718L397.285 115.159L398.889 112.447C399.068 113.597 399.227 114.784 399.363 116.008C403.474 109.786 406.035 102.613 407.963 95.3263C409.875 88.0216 411.196 80.5261 412.809 73.0765ZM458.341 30.3524C452.055 30.4697 445.671 30.9044 439.751 33.0985C433.796 35.157 428.597 39.1774 424.711 44.1384C428.843 38.3517 434.843 33.7517 441.743 31.4817C448.657 29.1771 456.001 28.7677 463.164 28.5193C465.354 28.4503 467.701 28.4963 469.937 28.5193C477.714 28.5377 485.617 28.3698 492.915 25.6352C485.111 29.3749 476.119 30.1408 468.66 30.7365C464.033 30.5341 461.254 30.3225 458.344 30.3524H458.341ZM128.791 291.352C137.661 289.107 146.507 286.874 155.404 284.625C163.105 282.614 170.803 280.363 178.249 277.497C182.666 275.634 187.118 273.785 191.239 271.322C187.68 274.001 184.311 276.184 179.705 278.392C172.543 281.396 164.35 283.886 153.384 286.621L128.791 291.352ZM519.321 1.15897C523.472 -6.12271 526.753 -13.5838 530.88 -21.4612C531.927 -23.4023 534.757 -26.712 537.014 -29.2419C533.501 -22.733 530.657 -16.0056 526.971 -8.25018C524.52 -5.03558 521.969 -1.89612 519.321 1.15897ZM39.0608 372.4C41.8907 367.899 44.1225 362.264 46.4463 357.715C50.5854 349.507 54.5474 341.381 59.2156 333.014C58.0192 336.091 56.8389 339.159 56.0981 341.307C50.215 353.481 45.4984 364.075 39.0608 372.4ZM228.157 218.561C231.079 211.688 233.518 204.832 237.215 197.548C238.939 194.029 242.546 189.85 245.464 186.076C243.75 189.089 242.178 192.143 240.671 195.023L236.769 203.089C233.242 209.421 230.702 213.991 228.157 218.561ZM223.408 213.282C218.777 222.654 214.194 231.606 208.713 239.389C207.367 241.441 205.4 242.972 203.778 244.762C208.005 239.364 211.608 233.009 214.712 227.337C217.712 222.716 220.612 218.03 223.408 213.282ZM47.5737 368.658C48.6804 366.259 49.4719 363.493 50.5786 361.321C54.8718 352.635 58.6381 343.566 63.1752 334.716C60.9711 339.748 58.9648 344.831 56.2523 351.816C54.0044 356.646 51.0617 362.879 47.5737 368.658ZM277.981 152.678C283.114 149.571 288.599 146.809 294.04 145.162C300.13 143.313 306.096 142.586 312.009 141.834C306.75 143.108 301.465 144.562 295.945 146.521C289.342 148.101 283.579 150.049 277.981 152.678ZM478.471 18.2454C481.678 17.7095 484.651 16.8631 487.147 16.0443C491.505 14.7242 495.651 12.7554 499.567 9.57455C496.817 12.185 493.93 14.4504 489.984 16.3571C486.668 17.5439 482.858 18.0752 478.473 18.2477L478.471 18.2454ZM355.377 127.172C357.006 126.61 358.835 125.617 360.001 125.394C368.399 123.595 375.693 121.07 381.456 117.036C378.769 119.347 375.874 121.555 370.104 124.225C366.342 125.371 361.03 126.456 355.377 127.172ZM196.409 259.546C194.253 260.942 191.991 261.839 189.783 262.881C193.091 260.36 196.264 257.927 199.255 254.976C200.083 254.208 201.125 253.587 202.46 252.326L204.919 250.197C206.101 249.234 207.202 248.175 208.21 247.032C206.921 248.948 205.587 250.335 204.478 251.655C203.327 252.924 202.444 254.198 201.441 255.056C199.485 256.846 198.024 258.318 196.409 259.546ZM228.114 202.847C229.818 199.119 231.599 195.209 233.626 191.511C234.629 189.691 235.83 187.904 236.976 186.152C238.133 184.364 239.351 182.617 240.628 180.912C239.431 182.833 238.391 184.76 237.356 186.743C236.327 188.721 235.156 190.772 234.158 192.902C232.041 196.306 230.012 199.604 228.116 202.847H228.114ZM554.739 -56.209C556.46 -58.1915 558.225 -60.0775 559.99 -62.0279C561.747 -63.9828 563.586 -65.9171 565.746 -67.6628C567.909 -69.4545 571.102 -71.3289 573.955 -72.9343C571.305 -70.6159 568.871 -68.0354 565.932 -65.2041C561.672 -62.0808 558.248 -59.1023 554.739 -56.209ZM-154.812 496.877C-159.506 500.37 -163.916 503.08 -168.506 506.012C-166.215 504.055 -163.801 501.865 -161.662 500.198C-156.977 496.631 -152.424 493.332 -144.613 486.895C-150.206 492.64 -152.946 495.49 -154.812 496.877ZM326.189 138.791C328.994 138.119 331.881 137.218 334.527 136.877C337.44 136.503 340.127 136.634 342.895 136.523C340.235 137.183 337.58 137.843 334.071 138.711L326.187 138.791H326.189ZM182.747 261.043C184.265 260.224 185.818 259.472 187.394 258.736L191.706 256.114C190.146 257.345 188.92 258.865 186.996 259.923C185.294 260.855 183.561 261.795 181.815 262.75L176.146 265.135L175.502 264.79L179.171 262.908C180.411 262.31 181.624 261.708 182.747 261.043ZM196.979 255.723C195.99 256.567 194.844 257.041 193.639 257.471C195.169 256.526 196.317 255.105 197.677 253.962L199.662 252.17C200.297 251.535 200.891 250.82 201.517 250.157C202.299 249.205 203.555 248.66 206.141 246.149C204.245 248.681 202.483 250.314 201.114 251.956C199.688 253.525 198.279 254.55 196.979 255.723ZM-99.766 444.543C-101.356 447.547 -102.934 450.755 -104.713 453.442C-106.385 455.861 -108.226 457.708 -109.986 459.783C-108.056 456.756 -106.029 453.794 -103.445 449.334C-102.506 448.106 -101.137 446.328 -99.766 444.543ZM381.912 124.814C377.142 128.066 371.705 130.677 365.753 132.572C363.705 133.225 361.372 133.552 359.132 133.938C361.223 133.295 363.298 132.597 365.353 131.845C372.955 129.633 377.621 127.429 381.912 124.814ZM251.625 166.126C252.992 164.344 254.138 162.315 255.776 160.79C258.852 158.069 261.792 155.362 265.34 153.2C262.825 155.049 260.677 157.209 257.831 160.096C255.739 161.751 253.724 163.955 251.625 166.126ZM-130.684 484.859C-133.921 488.424 -137.211 491.897 -140.747 495.267C-142.047 496.474 -143.803 497.562 -145.344 498.698C-142.763 496.037 -140.168 493.406 -137.285 490.211C-134.703 488.245 -132.722 486.531 -130.684 484.859ZM405.08 98.4818C404.57 100.349 403.537 101.771 402.713 103.346C403.702 100.52 404.333 97.5412 405.159 94.6018C405.605 92.5433 406.39 90.5861 408.2 83.401C406.737 92.18 406.001 95.4183 405.08 98.4818ZM408.175 52.2848L406.086 57.9795L404.342 63.5224C404.452 62.6324 404.45 61.7584 404.692 60.8453L405.573 57.5471C405.969 56.3788 406.383 55.1414 406.843 53.7729C407.275 52.4113 407.83 50.9026 408.631 49.1684C409.401 47.4457 410.126 45.5252 411.46 43.3426C410.057 46.137 409.693 47.9885 409.19 49.3409C408.729 50.6679 408.442 51.5074 408.175 52.2848ZM393.692 105.816C393.224 106.907 392.537 107.647 391.92 108.48C392.919 106.888 393.54 104.892 394.402 103.093L396.02 100.168C395.15 102.859 394.389 104.342 393.692 105.816ZM518.451 -2.99478C518.647 -2.94418 517.335 -0.497009 516.638 0.809357C515.504 1.91565 514.043 3.40833 513.295 3.7579C513.012 3.90741 514.379 1.62585 515.467 -0.802887C516.862 -1.79648 518.065 -3.10287 518.451 -2.99478ZM559.801 -57.1014C558.386 -55.8962 556.573 -54.6979 556.136 -54.5599C555.802 -54.5392 557.654 -56.9611 558.51 -57.6947C559.872 -58.8999 561.186 -59.6405 563.167 -61.032C561.773 -59.3852 560.599 -57.7729 559.801 -57.1014ZM340.081 130.198C338.378 130.32 337.417 130.088 336.108 129.996C337.971 129.635 339.895 129.14 341.583 128.933C342.95 128.749 344.055 128.924 345.918 128.933C343.353 129.522 341.234 130.122 340.081 130.198ZM105.857 290.483L110.107 288.866L114.391 287.527C113.631 287.939 112.856 288.512 112.122 288.728C109.253 289.503 106.432 290.591 103.225 291.623C104.263 291.168 105.031 290.798 105.857 290.483ZM209.749 248.704C208.661 250.155 207.328 251.259 206.058 252.45C207.287 251.07 208.453 249.649 209.572 248.127C210.635 246.657 212.029 245.509 214.288 242.39C212.16 245.783 210.878 247.19 209.749 248.704ZM449.018 23.7584C450.546 23.1604 452.026 22.6774 453.712 22.199C453.788 22.153 456.788 22.2289 456.703 22.2933C456.151 22.7142 455.178 23.0983 454.232 23.5928C451.588 23.6066 450.314 23.6503 449.018 23.7584ZM80.5485 303.668C79.1887 304.588 78.3214 304.685 77.3757 305.329C78.3513 304.211 79.681 303.153 80.6198 302.44C82.447 301.193 84.3496 300.059 86.3165 299.045C83.2059 301.357 81.5056 303.098 80.5485 303.668ZM304.921 138.899C306.988 138.306 309.077 137.792 311.183 137.356C313.081 137.029 315.003 136.854 316.889 136.664L311.211 138.046C308.834 138.356 306.892 138.575 304.918 138.899H304.921ZM257.69 170.096C257.003 170.813 256.168 171.372 255.242 171.733C255.12 171.784 256.692 169.594 257.428 168.835C258.691 167.547 259.788 166.489 262.179 164.776C259.8 167.145 258.808 169.015 257.69 170.096ZM130.418 276.738C131.658 276.352 132.831 275.933 134.159 275.59C135.063 275.367 136.168 275.257 137.185 275.096L132.454 276.724L130.418 276.738ZM-448.861 435.617C-446.298 432.411 -443.924 430.157 -441.528 427.411C-443.222 430.422 -444.74 433.246 -446.804 436.413C-450.955 442.575 -455.508 448.709 -460.717 454.228C-465.809 459.882 -471.478 465.057 -477.529 469.829C-474.607 468.012 -471.949 465.832 -469.126 463.826C-466.48 461.632 -463.756 459.484 -461.205 457.149C-463.487 459.523 -466.075 461.735 -468.498 464.031L-475.934 470.234C-478.817 472.4 -481.353 474.719 -484.178 476.605L-488.315 479.562C-489.709 480.531 -491.214 481.363 -492.695 482.274C-486.214 479.641 -480.29 476.439 -474.312 472.451C-464.66 465.77 -455.816 457.614 -448.111 448.552C-446.001 445.958 -443.832 443.262 -441.869 440.659C-439.987 438.06 -438.04 435.463 -436.232 432.864L-425.402 417.346C-418.293 407.093 -411.232 397.13 -403.545 388.16C-399.077 382.821 -395.446 377.483 -390.902 372.626C-388.339 371.471 -385.902 370.181 -383.31 369.351L-379.536 367.982C-378.262 367.605 -376.971 367.313 -375.722 366.977L-376.09 367.104C-369.88 363.759 -363.417 361.416 -356.545 360.257C-349.601 359.054 -342.011 358.808 -334.038 358.785C-326.055 358.75 -317.659 358.985 -308.744 358.516C-299.863 358.021 -290.268 356.825 -280.637 353.203C-278.394 352.467 -276.211 351.372 -274.034 350.275C-271.814 349.274 -269.771 347.88 -267.707 346.526C-265.581 345.252 -263.749 343.589 -261.884 341.972L-259.102 339.518C-258.221 338.667 -257.473 337.733 -256.656 336.834C-250.099 329.633 -245.583 321.454 -242.228 313.675C-235.441 298.033 -231.736 283.074 -225.952 271.126C-223.592 266.181 -220.831 262.03 -217.877 258.654C-214.741 255.567 -211.623 252.97 -207.944 251.409C-200.731 248.166 -191.273 247.621 -179.898 248.15C-168.831 248.584 -156.561 250.3 -142.788 250.516C-135.863 250.56 -128.487 250.219 -120.701 248.619C-112.947 246.956 -104.713 244.005 -97.5043 239.053C-90.3843 234.239 -84.323 228.021 -79.6917 220.782C-75.2604 213.848 -72.3016 206.702 -70.079 199.871C-65.6914 186.159 -63.9129 173.463 -61.5201 161.954C-59.5875 152.363 -57.3327 143.522 -54.0127 137.071C-50.7042 130.599 -46.7468 126.969 -41.3584 124.669C-38.6595 123.604 -35.3809 122.951 -31.5778 122.618C-27.8114 122.259 -23.3226 122.45 -18.6083 122.703C-9.07843 123.211 1.85254 124.75 14.5644 123.924C17.7072 123.765 21.0273 123.285 24.345 122.723C27.6926 121.978 31.1461 121.242 34.4155 120.007C41.0187 117.7 47.2608 114.303 52.6883 110.292C63.6216 102.192 71.2349 92.2674 77.5298 82.895C83.7994 73.4491 88.8796 64.2239 93.9988 55.7371C99.0766 47.2456 104.187 39.5247 109.759 33.4574C112.543 30.426 115.417 27.834 118.401 25.7295C119.896 24.6715 121.403 23.7515 122.993 22.9396C124.682 22.2726 126.196 21.3917 127.958 20.7684C134.923 18.2063 143.459 17.1046 152.853 16.7665C162.263 16.4054 172.469 16.7803 183.467 16.5779C194.432 16.3249 206.479 15.6188 219.131 11.587C222.286 10.4945 225.436 9.54004 228.525 7.87256L233.15 5.55649C234.682 4.7699 236.086 3.67053 237.549 2.72293C243.485 -0.986908 248.667 -6.03992 252.861 -11.2125C261.286 -21.7234 266.171 -32.8782 270.206 -43.1429C274.201 -53.4536 277.3 -63.2354 280.834 -71.8004C284.312 -80.3747 288.348 -87.5 292.828 -91.6537C295.227 -93.9007 297.694 -95.5337 300.689 -96.571C303.487 -97.606 306.888 -98.0568 310.804 -98.1695C314.793 -98.1718 319.415 -97.629 324.302 -96.8746L340.415 -93.9536C346.302 -93.0038 352.402 -91.9596 359.428 -91.7848C366.393 -91.6813 374.047 -92.0746 381.898 -94.6781C383.842 -95.1703 385.731 -96.157 387.627 -96.9252L390.45 -98.1948C391.37 -98.6617 392.228 -99.2366 393.112 -99.7679C394.86 -100.86 396.62 -101.948 398.298 -103.133C399.87 -104.442 401.42 -105.778 402.945 -107.142C408.743 -112.714 413.345 -119.193 416.357 -125.321C419.564 -131.494 421.853 -137.501 423.763 -143.099C425.741 -148.799 427.322 -154.033 428.995 -159.061C432.262 -168.912 435.754 -177.52 440.246 -182.767C444.424 -188.109 450.684 -191.849 458.935 -194.524C467.142 -197.16 476.826 -198.457 487.053 -199.126C501.985 -200.198 519.887 -200.23 538.585 -205.934C543.226 -207.42 547.865 -209.168 552.321 -211.484C553.442 -212.004 554.525 -212.675 555.616 -213.278C556.706 -213.906 557.756 -214.474 558.929 -215.297L562.307 -217.62L565.39 -220.155C573.406 -227.027 578.868 -235.364 582.454 -244.01C587.923 -257.566 586.501 -270.717 582.494 -278.302C578.541 -286.053 573.757 -288.298 571.765 -287.969C569.533 -287.578 569.372 -284.533 569.563 -279.839C569.671 -275.101 569.552 -268.433 566.28 -260.94C562.654 -252.669 555.689 -245.572 546.841 -239.624L544.183 -238.083L541.169 -236.62L538.026 -235.314L534.773 -234.164C530.36 -232.738 525.655 -231.726 520.745 -230.999C510.912 -229.539 500.326 -229.251 489.238 -228.789C478.05 -228.336 466.231 -227.439 454.34 -224.529C442.526 -221.654 430.094 -216.417 420.075 -207.082C413.308 -200.711 408.184 -192.815 404.487 -185.032C400.737 -177.217 398.086 -169.413 395.567 -162.079C393.07 -154.749 390.675 -147.858 387.79 -142.149C384.9 -136.418 381.647 -132.179 377.92 -129.684C374.303 -127.227 370.454 -126.004 365.397 -125.714C360.358 -125.426 354.268 -126.243 347.612 -127.533C340.928 -128.807 333.676 -130.535 325.588 -131.8C317.531 -133.018 308.395 -133.863 298.393 -132.195C297.151 -131.972 295.918 -131.827 294.666 -131.512L290.904 -130.426C289.659 -130.038 288.389 -129.69 287.17 -129.235L283.574 -127.708C278.841 -125.495 274.302 -122.655 270.347 -119.302C266.559 -116.038 263.13 -112.379 260.12 -108.388C257.255 -104.554 254.897 -100.658 252.801 -96.7987C248.696 -89.0823 245.747 -81.5914 243.073 -74.4868C240.414 -67.4052 238.053 -60.618 235.531 -54.4495C231.427 -44.1664 226.765 -35.6197 221.191 -30.2907C218.402 -27.6711 215.07 -25.7046 211.465 -23.8577C207.501 -22.3995 203.32 -20.9414 198.259 -20.2813C188.363 -18.646 176.756 -18.6943 164.212 -18.5103C151.691 -18.2412 138.01 -17.9008 123.52 -14.0323C119.057 -12.5925 114.575 -11.3045 110.169 -9.08737C105.694 -7.21289 101.479 -4.58633 97.5282 -1.83099C89.7377 3.83841 83.2748 10.5704 78.0912 17.4128C70.1075 27.8891 64.2106 38.5334 58.4978 48.4094C52.824 58.2762 47.3574 67.5244 41.2258 74.7578C35.0828 82.0578 28.5784 86.8625 20.9789 88.9761C13.5704 91.2853 3.40332 90.8345 -7.91193 90.0502C-13.6362 89.6546 -19.7701 89.2176 -26.3688 89.2682C-32.9559 89.3441 -40.1091 89.8593 -47.5291 91.9799C-54.9514 94.128 -62.2495 97.8862 -68.3028 102.985C-74.462 108.089 -79.0935 114.549 -82.4641 120.932C-89.1456 133.871 -91.5223 146.452 -93.777 158.021C-95.9352 169.604 -97.6401 180.565 -100.615 190.092C-102.844 197.348 -105.902 203.523 -109.896 208.022C-113.971 212.463 -118.961 215.499 -125.305 217.169C-131.627 218.892 -139.275 219.184 -147.371 218.965C-155.489 218.749 -164.153 217.974 -173.237 217.645C-182.196 217.335 -191.763 217.369 -201.803 219.264C-211.766 221.143 -222.434 225.504 -230.591 232.807C-238.922 239.904 -244.543 248.936 -248.484 257.586C-252.46 266.303 -255.08 274.882 -257.588 283.063C-262.473 299.271 -267.265 314.607 -277.034 323.979C-281.806 328.726 -287.919 331.893 -294.994 333.851C-302.067 335.829 -310.046 336.498 -318.363 336.811C-328.845 337.225 -339.894 337.045 -351.441 338.375C-362.961 339.465 -375.105 343.232 -385.447 349.102C-395.899 354.976 -404.843 362.759 -412.619 371.105C-420.412 379.477 -427.142 388.447 -433.496 397.445L-451.935 424.281L-456.569 430.778L-461.262 436.836L-466.319 442.614L-471.712 448.092C-479.112 455.176 -487.321 461.441 -496.128 466.338C-504.913 471.225 -514.415 474.659 -523.857 475.452C-533.371 476.262 -542.712 475.176 -551.101 470.291C-546.15 475.926 -539.838 480.126 -530.808 482.435C-528.176 483.351 -520.615 482.75 -515.397 481.803C-518.536 482.371 -521.78 483.024 -525.026 483.026C-528.259 483.374 -531.408 482.996 -534.351 482.888C-542.542 482.138 -549.985 479.783 -557 475.689C-550.489 481.191 -542.422 485.239 -533.64 486.95C-524.872 488.721 -515.602 488.289 -506.841 486.193C-506.519 486.097 -505.433 485.676 -504.167 484.903C-502.897 484.144 -501.356 483.24 -499.913 482.546C-497.877 481.653 -495.799 480.457 -493.65 479.286L-490.406 477.527L-487.335 475.554C-481.284 470.779 -476.116 465.388 -470.01 459.217C-463.938 452.97 -457.056 445.723 -448.861 435.617ZM-77.3448 160.415C-78.4547 167.57 -79.7975 174.687 -81.3712 181.754C-81.6818 183.104 -82.4066 184.307 -82.9357 185.572C-81.6588 179.04 -80.7569 172.531 -79.7745 165.965C-79.2177 162.257 -78.5643 158.428 -77.8579 154.677C-77.377 151.227 -76.9146 147.841 -76.0265 144.251C-74.3124 137.763 -72.1428 131.275 -68.7169 125.345C-67.0328 122.367 -64.9736 119.6 -62.6797 117.026C-60.28 114.563 -57.71 112.197 -54.7466 110.398C-54.4774 110.554 -53.8976 110.796 -53.992 110.858C-60.4388 114.883 -65.4752 120.833 -68.9263 127.484C-72.4419 134.14 -74.5747 141.404 -76.3049 148.708C-76.7743 150.815 -77.5151 153.037 -78.0673 155.229C-77.8142 156.912 -76.9422 157.855 -77.3448 160.415ZM-252.462 304.611C-253.161 306.49 -254.038 308.291 -254.926 310.074C-255.791 311.868 -256.672 313.652 -257.726 315.354C-256.886 313.468 -256.35 311.461 -255.763 309.492C-255.142 307.537 -254.523 305.598 -253.822 303.673C-249.459 292.596 -246.344 281.009 -241.848 269.831C-239.727 264.199 -236.909 258.817 -233.766 253.64L-231.074 249.96C-230.618 249.352 -230.188 248.727 -229.714 248.133L-228.14 246.475C-227.084 245.376 -226.058 244.247 -224.974 243.177L-221.376 240.348C-216.574 236.576 -210.873 234.032 -205.008 232.489C-199.13 230.914 -193.067 230.265 -187.044 230.132C-174.974 229.84 -163.037 231.314 -151.122 231.926C-142.434 232.349 -133.668 232.411 -125.19 230.697C-116.73 229.037 -108.686 225.263 -102.435 219.359C-100.083 217.1 -97.6677 214.881 -95.6614 212.243C-97.3571 215.106 -99.3127 217.836 -101.752 220.21C-108.092 226.249 -116.334 230.09 -124.879 231.767C-133.452 233.49 -142.215 233.451 -150.825 233.158C-155.629 232.984 -160.801 233.499 -164.119 233.954C-165.89 234.193 -164.098 235.06 -163.914 235.642L-179.75 232.974C-183.602 232.248 -185.521 231.406 -188.362 230.704C-192.487 231.551 -196.53 232.636 -200.358 234.069C-202.372 234.925 -204.3 235.923 -206.126 236.995C-207.024 237.14 -207.939 237.259 -208.846 237.436C-205.977 236.102 -202.979 234.883 -199.831 234.049C-206.195 233.287 -214.221 235.571 -220.539 240.833C-227.068 245.863 -231.693 253.161 -235.305 259.987L-232.995 260.339C-233.605 261.294 -234.092 262.336 -234.582 263.373C-234.801 262.156 -235.079 260.884 -235.185 259.682C-242.732 273.734 -246.39 289.616 -252.464 304.611H-252.462ZM-308.311 344.794C-301.643 344.394 -294.971 343.529 -288.561 341.586C-282.174 339.614 -276.112 336.427 -271.071 331.995C-276.558 337.216 -283.472 340.87 -290.765 343.103C-298.082 345.36 -305.732 346.317 -313.343 346.852C-315.664 347.023 -318.161 347.046 -320.54 347.029C-328.873 347.036 -337.156 346.79 -345.429 347.186C-336.337 345.981 -327.108 345.507 -319.212 344.794C-314.339 344.897 -311.383 345.005 -308.311 344.794ZM35.1218 99.2823C30.9637 101.638 26.4925 103.393 21.8417 104.494C17.1251 105.515 12.3194 106.069 7.49408 106.15C-0.92218 106.373 -9.38904 105.515 -17.8283 105.179C-22.9039 105.016 -28.0139 104.846 -33.0595 105.386C-28.4625 104.462 -24.2314 103.795 -18.8568 103.776C-14.7614 103.829 -10.4704 104.075 -5.75146 104.344C-1.02795 104.588 4.1579 104.919 10.0088 104.623C13.9861 104.654 17.9585 104.339 21.8809 103.68C26.4794 102.844 30.9371 101.363 35.1218 99.2823ZM-382.212 358.488C-389.482 363.486 -395.609 369.447 -401.732 376.221C-403.227 377.923 -406.904 380.51 -409.428 382.923C-404.964 376.701 -400.144 370.692 -393.523 364.44C-391.335 362.968 -389.282 361.968 -387.456 360.997C-385.645 360.004 -383.974 359.157 -382.212 358.488ZM126.914 10.5957C125.621 11.1316 124.185 11.4789 122.97 12.208C121.728 12.8704 120.485 13.5351 119.25 14.1906C116.788 15.4693 114.632 17.0701 112.559 18.3765C105.268 23.2616 98.9386 29.3565 93.0716 36.5968C94.5754 34.1331 96.1615 31.7206 97.8273 29.3634C102.286 24.4369 106.839 20.3062 111.671 17.2035C114.117 15.7017 116.491 14.2504 119.093 13.2798L122.922 11.7526C124.171 11.2098 125.598 10.9982 126.914 10.5957ZM-71.3582 153.653C-72.4856 161.321 -72.9412 168.911 -74.4137 177.371C-75.1246 181.451 -77.3264 186.8 -79.1694 191.561C-77.4898 184.355 -76.4038 177.256 -75.5571 171.68C-73.8753 164.162 -72.7134 158.847 -71.3582 153.651V153.653ZM-65.4153 157.628C-63.3538 147.193 -60.7102 137.469 -56.1201 130.502C-54.9261 128.772 -53.2949 127.365 -51.7257 126.183C-53.64 128.276 -55.2919 130.725 -56.7046 133.434C-58.1011 136.158 -59.2124 139.177 -60.1696 142.11C-62.6958 148.09 -64.0694 152.837 -65.4153 157.628ZM117.543 8.62463C116.339 9.28934 115.132 10.0276 114.039 10.9016L110.79 13.2108C102.47 18.6318 95.5288 26.0768 89.4387 34.2646C92.5769 29.5773 95.844 24.9521 101.219 19.3425C105.277 15.6165 111.015 11.2696 117.543 8.62463ZM-107.616 233.004C-113.377 236.457 -119.884 238.881 -126.075 239.849C-133.024 240.93 -139.507 240.422 -145.855 239.936C-140.076 239.798 -134.174 239.414 -127.893 238.264C-120.528 237.593 -113.865 235.962 -107.616 233.004ZM-330.493 357.064C-334.441 357.331 -338.338 357.828 -342.015 358C-348.278 358.253 -354.186 358.582 -359.722 359.73C-355.65 358.426 -351.14 357.711 -345.521 356.926C-340.511 356.834 -335.499 356.88 -330.49 357.064H-330.493ZM-192.671 245.838C-194.305 246.19 -196.118 246.988 -197.204 247.112C-201.189 247.627 -204.757 248.524 -207.995 249.9C-208.811 250.22 -209.605 250.597 -210.369 251.027C-211.181 251.374 -211.871 251.924 -212.596 252.423L-214.814 253.897C-215.562 254.399 -216.16 255.132 -216.862 255.73C-216.231 255.063 -215.709 254.235 -214.991 253.637C-214.278 253.032 -213.542 252.407 -212.757 251.731C-211.257 250.263 -209.237 249.102 -206.619 247.752C-203.119 246.666 -198.205 245.808 -192.671 245.84V245.838ZM-42.5617 114.451C-41.4251 113.981 -40.1183 113.988 -38.9219 113.862C-37.7347 113.724 -36.4669 113.816 -35.2107 113.816C-37.332 114.138 -39.2026 114.841 -41.1306 115.391C-42.9114 116.196 -44.7797 116.794 -46.4385 117.792C-46.9393 118.046 -47.4539 118.271 -47.98 118.466L-49.9127 119.434C-51.4404 120.159 -53.327 121.309 -55.8763 123.397C-53.1292 120.246 -50.5569 118.494 -48.4402 117.109C-47.3243 116.507 -46.3372 115.975 -45.4192 115.476C-44.4322 115.092 -43.4912 114.775 -42.5617 114.451ZM-67.1524 169.263C-67.7921 173.497 -68.3167 177.911 -69.2784 182.297C-70.2148 186.605 -71.5837 190.874 -73.0862 195.253C-71.9128 190.602 -70.9993 186.025 -70.1688 181.06C-69.1426 177.046 -68.1441 173.152 -67.1524 169.261V169.263ZM-426.879 411.008C-429.624 415.612 -432.079 420.194 -435.199 424.952C-436.766 427.356 -439.513 430.047 -441.724 432.6C-439.929 429.437 -438.128 426.275 -436.03 422.581C-432.657 418.31 -429.771 414.66 -426.879 411.008ZM328.803 -107.512C334.796 -106.097 340.09 -104.315 346.061 -102.866C342.653 -103.264 339.133 -103.689 336.22 -104.301L326.649 -106.47C323.186 -107.218 319.231 -108.057 314.278 -108.609C318.235 -108.584 321.288 -108.425 323.642 -108.202C325.968 -108.036 327.613 -107.799 328.803 -107.512ZM-161.238 239.817C-164.282 239.851 -167.43 240.111 -170.207 239.886C-173.253 239.656 -175.972 238.966 -178.8 238.57C-175.998 238.386 -173.147 238.287 -169.346 238.188L-161.238 239.817ZM-29.438 118.255C-33.0364 118.416 -36.4117 118.577 -39.451 119.237C-38.5698 118.931 -37.7116 118.588 -36.8304 118.243C-35.8894 117.979 -34.8909 117.762 -33.8394 117.581C-29.9971 117.082 -25.7384 117.029 -21.1575 117.296L-20.6652 117.88C-23.7344 117.898 -26.661 118.163 -29.438 118.255ZM-44.2344 117.739C-43.0702 117.371 -41.8806 117.422 -40.7487 117.268C-43.8823 118.445 -46.7445 119.763 -49.3766 121.661C-50.1934 122.346 -51.3759 122.631 -53.9183 124.513C-50.0829 120.568 -47.0988 119.069 -44.2344 117.739ZM264.231 -80.8738C265.492 -84.2593 266.829 -87.8357 268.552 -90.8188C270.087 -93.558 271.999 -95.6096 273.897 -97.7923C271.709 -94.6597 269.829 -91.3271 267.496 -86.3868C266.633 -85.0045 265.379 -82.9644 264.231 -80.8738ZM-218.139 247.989C-213.793 243.941 -208.407 241.197 -202.362 239.571C-200.292 238.991 -197.91 238.865 -195.623 238.704C-198.601 239.265 -201.412 240.088 -202.003 240.314C-205.846 241.201 -208.883 242.321 -211.437 243.635C-212.769 244.207 -213.873 245.003 -215.037 245.636C-216.096 246.434 -217.117 247.209 -218.139 247.989ZM-80.5522 214.053C-81.6105 216.339 -82.5515 218.814 -84.0953 220.884C-86.709 224.724 -90.1326 228.089 -93.7356 231.148C-91.1587 228.662 -88.7705 225.98 -86.1016 222.183C-84.0655 219.605 -82.2112 216.888 -80.5522 214.053ZM302.353 -116.263C304.875 -116.93 307.456 -116.951 310.033 -117.275C312.601 -117.259 315.219 -117.443 317.807 -117.156C319.701 -117.006 321.82 -116.466 323.789 -115.957C319.663 -116.298 315.518 -116.358 311.383 -116.137C309.676 -116.408 308.126 -116.298 306.642 -116.383L304.463 -116.438C303.754 -116.378 303.052 -116.318 302.353 -116.263ZM-241.252 278.571C-240.516 276.646 -239.522 275.059 -238.584 273.373L-241.648 282.739C-242.357 284.878 -243.266 286.982 -246.098 294.406C-243.348 285.273 -242.465 281.791 -241.252 278.571ZM-252.678 327.059C-252.057 326.139 -251.385 325.242 -250.805 324.331L-249.19 321.583C-248.139 319.754 -246.961 317.933 -246.119 316.086C-246.406 316.999 -246.514 317.914 -247.03 318.832C-249.376 323.087 -251.314 327.657 -258.103 335.433C-254.231 330.392 -253.757 328.453 -252.678 327.059ZM-229.293 270.172C-228.683 268.99 -228.021 267.989 -227.39 266.913C-228.327 269.024 -229.258 271.108 -230.11 273.394C-230.448 274.236 -231.007 274.992 -231.992 276.729C-230.798 273.817 -230.105 271.876 -229.293 270.174V270.172ZM-383.337 362.63C-383.535 362.439 -381.151 360.882 -379.909 359.946C-378.338 359.449 -376.347 358.605 -375.455 358.695C-375.277 358.716 -375.816 359.012 -376.626 359.608C-377.415 360.227 -378.503 361.073 -379.585 361.922C-381.315 362.253 -383.056 362.821 -383.335 362.63H-383.337ZM-431.713 412.976C-430.54 411.431 -429.005 409.802 -428.536 409.621C-428.248 409.51 -429.645 412.335 -430.321 413.282C-431.428 414.8 -432.576 415.844 -434.269 417.712C-433.223 415.739 -432.371 413.839 -431.713 412.976ZM-177.194 245.309C-175.457 245.53 -174.548 245.935 -173.246 246.298C-175.183 246.284 -177.233 246.367 -178.924 246.275C-180.328 246.188 -181.386 245.815 -183.211 245.5C-180.615 245.332 -178.34 245.185 -177.194 245.309ZM57.8397 90.156C55.6796 92.6614 53.3684 95.0324 50.919 97.256C51.5356 96.5131 52.0096 95.554 52.6377 94.9813C55.1144 92.6756 57.48 90.2533 59.7264 87.7226C58.9855 88.684 58.4517 89.4246 57.8397 90.156ZM-57.2913 121.624C-56.0258 120.46 -54.7374 119.416 -53.3155 118.531C-54.7144 119.625 -55.8809 120.969 -57.1532 122.201C-57.7146 122.85 -58.3036 123.471 -59.079 124.253C-59.7669 125.127 -60.7126 126.093 -61.7617 127.643C-59.737 124.345 -58.5084 122.956 -57.2913 121.624ZM-298.293 351.004C-299.833 351.602 -301.349 352.145 -303.086 352.724C-303.155 352.782 -306.314 352.867 -306.226 352.777C-305.667 352.34 -304.65 351.915 -303.689 351.356L-298.293 351.004ZM75.1784 66.6918C76.1149 65.4015 76.7614 64.9806 77.5322 64.1848C76.881 65.4268 76.2 66.908 75.5604 67.8487C74.5872 69.3045 73.6599 70.3901 71.626 72.9638C73.5356 69.6541 74.5342 67.5681 75.1784 66.6918ZM-139.024 244.27C-141.364 244.396 -143.711 244.562 -145.982 244.493C-148.066 244.435 -150.1 244.166 -152.102 243.948C-150.018 243.934 -147.934 243.89 -145.851 243.816C-143.315 244.046 -141.173 244.161 -139.024 244.27ZM-87.3832 211.615C-86.6469 210.373 -85.8186 209.614 -85.2964 209.216C-85.2135 209.122 -86.2167 211.884 -86.9116 212.843C-87.9699 214.531 -89.042 215.867 -91.1679 218.287C-89.1594 215.17 -88.3104 213.043 -87.3832 211.615ZM35.8235 114.285C34.3281 115.048 32.8257 115.646 31.1599 116.277C30.0049 116.75 28.5255 116.898 27.2003 117.197L30.2695 116.116L33.2674 114.782C34.3764 114.602 35.1126 114.478 35.8235 114.285ZM-261.143 60.0541C-262.229 60.8016 -263.232 61.2938 -264.329 61.9332C-263.853 60.8913 -263.593 59.7229 -262.825 58.7247C-260.018 54.6607 -256.295 51.0705 -251.958 48.184C-254.093 49.0488 -256.265 49.9665 -258.308 51.1647C-256.583 49.702 -254.516 48.5198 -252.821 47.241C-250.771 45.8472 -249.001 44.3016 -246.846 43.0942C-249.282 43.4001 -251.657 43.8485 -254.052 44.78C-257.899 46.4245 -261.543 48.7935 -264.792 51.6041C-268.413 54.847 -271.623 58.6787 -274.098 63.067C-276.625 67.414 -278.171 72.49 -278.67 77.5752C-278.826 79.0817 -278.624 80.5559 -278.145 81.9566C-277.704 83.3596 -277.241 84.7074 -276.661 85.9999C-277.179 87.1798 -277.743 88.431 -278.175 89.7029C-278.578 90.9679 -278.958 92.2789 -279.31 93.6404L-279.287 93.4449C-276.139 106.654 -267.728 118.027 -255.377 124.823C-249.666 127.947 -242.789 129.805 -235.951 129.936C-229.233 130.09 -222.625 128.756 -216.636 126.553C-206.736 122.896 -197.609 117.825 -191.04 109.54C-187.821 105.49 -185.155 101.031 -183.112 96.2785C-181.057 91.4371 -179.585 86.3196 -178.881 81.193C-177.369 70.8984 -178.464 60.5854 -181.421 51.1188C-186.505 35.3157 -196.693 21.2768 -211.315 12.0194C-218.585 7.42868 -227.093 4.2225 -235.744 2.96902C-244.391 1.68796 -253.062 2.21005 -261.219 4.13052C-277.52 8.00595 -292.164 17.1874 -302.541 30.8515C-307.692 37.6548 -311.663 45.7231 -313.739 54.295C-315.835 62.8463 -316.062 71.6229 -314.797 79.9557C-311.999 97.7942 -303.04 114.055 -288.821 125.741C-287.093 127.245 -285.179 128.558 -283.223 129.828C-281.327 131.169 -279.248 132.271 -277.147 133.347C-275.099 134.497 -272.867 135.35 -270.643 136.206C-268.533 137.117 -265.942 137.774 -263.432 138.402C-253.357 140.684 -243.553 139.916 -234.281 137.333C-227.71 135.408 -221.052 132.172 -215.323 127.339C-209.598 122.576 -204.909 115.957 -202.864 109.041C-201.281 103.65 -201.829 99.1143 -203.129 96.3153C-204.525 93.4541 -206.398 92.1248 -208.377 91.8856C-210.36 91.6372 -212.481 92.449 -214.568 93.714C-215.622 94.3465 -216.616 95.094 -217.64 95.8898C-218.778 96.6718 -219.89 97.4929 -220.897 98.3416C-223.612 100.17 -226.557 100.911 -228.837 102.551C-232.277 105.225 -236.729 107.491 -241.565 108.765C-246.399 109.984 -251.7 109.869 -255.708 108.073C-257.082 107.38 -258.198 106.893 -259.679 105.961C-261.117 105.237 -262.466 104.264 -263.837 103.355C-266.469 101.332 -269.126 99.2271 -271.172 96.4855C-275.203 91.5682 -277.761 85.3813 -278.971 79.3945C-280.034 73.3341 -279.818 67.4577 -278.251 62.4713C-277.048 58.359 -275.23 54.2605 -272.315 50.316C-269.37 46.4383 -265.404 42.8596 -260.775 40.3802C-257.938 38.7794 -254.673 38.1584 -251.636 37.4501C-242.138 35.3019 -233.117 37.0108 -225.285 43.0229C-217.458 48.9223 -211.692 58.8788 -210.415 68.8975C-209.824 72.7223 -210.151 76.5425 -211.013 80.1028C-211.786 83.6655 -213.245 87.0373 -215.104 90.3308C-218.785 96.75 -224.574 102.346 -231.205 104.528C-232.855 105.156 -234.557 105.423 -236.29 105.632C-237.141 105.701 -237.946 105.644 -238.802 105.697C-239.642 105.568 -240.505 105.524 -241.365 105.368C-244.814 104.685 -248.334 102.967 -251.348 100.441C-255.207 97.3135 -258.115 92.8654 -259.659 88.2057C-260.418 85.8551 -260.717 83.4516 -260.765 81.0711C-260.609 78.7206 -260.328 76.3585 -259.401 74.0999C-256.019 64.9415 -245.822 57.5379 -235.581 56.7169C-233.025 56.588 -230.418 55.7417 -227.653 55.9188C-229.114 53.7177 -230.883 51.4683 -233.63 49.7825C-234.033 49.5433 -234.808 49.4444 -235.691 49.3869C-236.57 49.3547 -237.546 49.4926 -238.365 49.4789C-236.423 49.1247 -234.341 49.2903 -232.528 49.0235C-231.265 48.9484 -230.006 48.8349 -228.75 48.6831L-224.915 48.6739C-229.578 45.6357 -235.406 43.7681 -241.623 43.476C-241.862 43.4691 -242.957 44.6122 -243.933 45.0699L-248.291 47.1467L-251.028 50.2264C-251.88 51.3235 -252.766 52.3584 -253.743 53.3773C-255.602 55.5784 -257.942 57.4828 -261.143 60.0541ZM-196.385 56.4109C-195.568 58.405 -194.896 60.7418 -194.613 63.0417C-194.544 63.4718 -194.889 63.9548 -195.05 64.4056C-195.665 62.4047 -196.321 60.4589 -197.181 58.566C-197.641 57.4942 -197.959 56.3397 -198.515 55.2886C-199.114 54.3617 -199.808 53.5199 -200.266 52.5056C-201.187 50.6887 -202.19 48.9085 -203.218 47.1628C-204.392 45.4977 -205.369 43.7198 -206.715 42.1949C-206.508 42.004 -206.152 41.6199 -206.131 41.6429C-204.601 43.361 -203.474 45.3689 -202.151 47.2617C-201.085 49.2949 -199.82 51.2682 -198.999 53.444C-198.736 54.0604 -198.683 54.8056 -198.538 55.4841C-197.798 55.7509 -196.691 55.6405 -196.385 56.4109ZM-234.543 116.985C-235.793 116.957 -237.026 116.856 -238.232 116.55C-236.927 116.304 -235.701 115.373 -234.486 115.377C-227.367 115.074 -220.437 112.353 -214.718 108.05C-208.92 103.822 -204.307 98.0495 -201.104 91.6349C-200.02 89.2521 -199.01 86.8187 -198.414 84.2658C-198.124 82.9893 -197.777 81.7244 -197.524 80.4433L-197.002 76.5494C-196.827 75.5627 -196.541 74.5876 -196.284 73.5894C-196.162 74.6013 -195.761 75.6479 -195.922 76.6759L-196.419 80.6388C-196.677 81.9451 -197.041 83.2331 -197.34 84.5303C-197.956 87.127 -198.973 89.5971 -199.96 92.0627C-200.6 93.3805 -200.476 95.2458 -200.45 96.4878C-200.427 97.1548 -199.484 97.0237 -198.955 97.2468C-200.377 98.4888 -201.872 99.9193 -203.315 100.609C-204.539 101.253 -205.625 101.157 -206.778 101.309C-207.054 102.714 -207.406 104.131 -207.868 105.517C-208.025 106.339 -208.158 107.215 -208.381 108.031L-209.396 108.31C-208.761 107.399 -208.213 106.424 -207.689 105.453C-209.069 105.515 -210.187 105.908 -211.236 106.465C-212.249 107.058 -213.153 107.857 -214.089 108.696C-215.875 110.455 -217.807 112.447 -220.053 113.496L-218.857 115.32C-219.211 115.49 -219.551 115.686 -219.913 115.835C-219.91 115.035 -219.945 114.202 -219.982 113.402C-224.498 115.605 -229.498 116.937 -234.546 116.985H-234.543ZM-254.94 108.56C-251.949 111.244 -248.429 113.436 -244.566 114.802C-249.087 113.8 -253.444 111.755 -257.28 108.914C-257.848 108.464 -258.384 107.889 -258.897 107.35C-260.66 105.428 -262.155 103.305 -263.485 101.111C-261.359 103.096 -259.136 104.841 -257.05 106.046C-256.155 107.196 -255.667 107.988 -254.94 108.56ZM-227.413 24.6186L-223.348 26.2286C-222 26.8036 -220.743 27.5694 -219.427 28.2502C-218.258 28.8114 -217.265 29.6371 -216.188 30.3501C-215.109 31.0723 -214.057 31.8358 -213.102 32.7144C-211.934 33.7494 -210.675 34.72 -209.64 35.8999C-210.947 35.1271 -212.46 34.8419 -213.772 33.9128C-214.761 33.1837 -215.762 32.4017 -216.947 31.6266C-218.111 30.8262 -219.315 29.8556 -220.9 29.069C-221.721 28.4595 -222.648 27.6108 -223.787 26.8841L-227.413 24.6186ZM-269.209 90.3055C-269.856 89.0129 -270.551 87.7134 -270.999 86.3013C-271.245 85.5998 -271.512 84.8822 -271.719 84.1462C-271.876 83.401 -272.018 82.6351 -272.14 81.8462C-272.315 81.055 -271.383 79.5785 -270.834 78.5021C-270.661 79.7901 -270.396 81.0413 -269.971 82.3062L-269.379 84.2106L-268.54 86.138C-269 87.8101 -269.046 89.0359 -269.207 90.3032L-269.209 90.3055ZM-270.065 17.6566C-268.197 16.4376 -266.043 15.1956 -264.118 14.646C-260.579 13.9146 -257.185 13.8847 -253.776 14.0296C-254.878 14.4321 -255.98 14.8346 -256.757 15.1151C-259.068 15.3224 -261.367 15.6309 -263.651 16.0397C-265.804 16.5802 -268.008 16.9137 -270.065 17.6566ZM-192.989 52.524C-192.216 53.6878 -191.466 54.8539 -190.849 56.1051C-190.214 57.3517 -189.526 58.6281 -189.133 60.0541C-188.774 61.4479 -189.448 63.5294 -189.68 65.2244C-190.408 62.8808 -190.964 60.5325 -191.719 58.7707C-192.161 56.2132 -192.441 54.3272 -192.989 52.5263V52.524ZM-186.37 51.2498C-187.906 47.3162 -189.761 43.5141 -191.915 39.8811C-192.469 38.9658 -192.674 37.7905 -193.053 36.721L-190.286 40.6102C-189.457 41.9281 -188.705 43.2437 -187.98 44.4696C-187.062 47.2617 -186.83 49.3156 -186.37 51.2498ZM-265.355 21.4193C-264.587 20.8835 -263.819 20.0899 -262.999 19.8416C-259.759 18.9774 -256.437 18.4556 -253.088 18.2845C-254.868 18.7491 -256.661 19.1286 -259.017 20.0555C-260.811 20.2693 -263.08 20.8029 -265.358 21.4217L-265.355 21.4193ZM-189.446 81.2643C-189.46 83.3113 -189.561 85.4733 -190.067 87.4236C-190.78 89.5672 -192.046 91.4394 -193.281 93.2425C-192.695 91.3635 -192.342 89.4016 -191.961 87.3845C-191.043 85.2019 -190.09 83.2722 -189.446 81.262V81.2643ZM-268.535 111.541C-269.778 110.538 -271.038 109.471 -271.943 108.192C-272.736 107.132 -273.341 105.943 -273.912 104.754C-274.509 103.578 -275.032 102.367 -275.479 101.127C-274.48 102.87 -273.185 104.402 -271.731 106.299C-270.755 107.951 -269.814 109.862 -268.535 111.541ZM-196.912 112.544C-197.259 113.291 -197.637 114.315 -198.078 114.694C-201.313 117.459 -204.909 119.676 -208.657 121.567C-207.001 120.279 -205.388 118.935 -203.117 116.624C-201.327 115.642 -199.107 114.156 -196.912 112.544ZM-201.536 34.2646C-202.181 33.4366 -202.383 32.3327 -202.806 31.3345C-201.449 32.473 -200.046 33.5608 -198.953 35.0144C-198.391 35.801 -197.929 36.8866 -196.974 39.7086C-199.217 36.7578 -200.634 35.6699 -201.536 34.2646ZM-184.52 55.4749C-183.922 57.009 -183.204 58.5522 -182.981 60.1944C-182.737 61.8067 -182.751 63.4212 -182.792 65.0404C-183.137 63.4028 -183.657 61.8159 -184.154 60.0403C-184.152 58.4625 -184.352 56.9814 -184.522 55.4749H-184.52ZM-270.569 66.7815C-270.109 64.8725 -269.575 63.0096 -268.53 61.2248C-268.04 60.2841 -266.575 59.7183 -265.59 59.0191C-266.115 60.2358 -266.717 61.3467 -267.145 62.8164L-269.016 64.7782L-270.569 66.7815ZM-298.461 95.3562L-296.991 101.495C-297.635 100.559 -298.468 99.6134 -298.889 98.6658C-299.379 97.6584 -299.626 96.5591 -300.01 95.324C-300.348 94.0636 -300.838 92.6583 -301.162 90.7494C-299.789 93.4495 -298.625 94.4914 -298.461 95.3562ZM-195 98.3393C-195.287 99.4041 -195.506 100.605 -196.07 101.458C-196.679 102.41 -197.733 102.928 -198.601 103.592C-198.209 102.601 -197.8 101.628 -197.404 100.287C-196.5 99.5651 -195.711 98.9832 -195 98.3393ZM-200.683 26.2585C-199.59 27.505 -198.693 28.9172 -197.733 30.2535C-198.532 29.6509 -199.394 29.1863 -200.105 28.4549C-201.325 27.1279 -202.579 25.7341 -203.948 24.4668L-203.708 23.9079C-202.698 24.6761 -201.523 25.3109 -200.683 26.2585ZM-198.782 33.6758C-199.121 33.2066 -199.058 32.4913 -199.231 31.9117C-198.15 33.1307 -197.091 34.3727 -196.102 35.6883C-195.782 36.1322 -195.649 36.7624 -195.258 38.3355C-196.769 36.0862 -197.933 34.9753 -198.782 33.6758ZM-296.708 68.4742C-296.628 69.5529 -296.306 70.6569 -296.271 71.662C-296.271 72.5751 -296.706 73.41 -296.95 74.3023L-297.456 70.381C-297.299 69.8864 -296.987 69.1734 -296.708 68.4742ZM-210.604 114.97C-208.66 113.37 -206.916 111.603 -205.185 109.825C-204.61 109.197 -203.757 108.749 -203.025 108.206L-204.576 110.357C-206.467 112.042 -208.482 113.585 -210.604 114.97ZM-182.371 71.7655C-182.178 72.5613 -181.812 73.3893 -181.842 74.1736C-181.918 75.6028 -182.149 77.0195 -182.532 78.3986C-182.502 77.3176 -182.589 76.2435 -182.746 74.8244L-182.371 71.7655ZM-294.626 84.3624C-293.982 85.7608 -293.222 87.0855 -292.647 88.5C-292.459 89.0244 -292.493 89.7282 -292.422 90.3561C-293.183 89.4085 -293.775 88.3781 -294.518 87.1706C-294.564 86.0851 -294.628 85.2272 -294.626 84.3624ZM-225.29 117.445C-224.625 117.266 -223.909 117.5 -223.196 117.542C-224.227 117.972 -225.248 118.462 -226.325 118.807C-227.077 118.954 -227.889 119.027 -230.554 119.119C-227.471 118.289 -226.385 117.767 -225.29 117.445ZM-242.007 126.507L-237.341 127.365C-237.7 127.487 -238.061 127.664 -238.445 127.641C-240.263 127.482 -242.131 127.42 -245.578 126.537C-243.335 126.534 -242.621 126.406 -242.007 126.507ZM-218.199 123.476C-217.64 123.282 -217.085 123.229 -216.524 123.108C-217.451 123.572 -218.369 124.067 -219.331 124.465C-219.699 124.607 -220.131 124.58 -221.038 124.577C-219.742 124.156 -218.99 123.726 -218.199 123.476ZM-272.384 89.9904C-272.203 89.9237 -271.754 90.8736 -271.429 91.3474C-271.637 92.0006 -271.653 92.817 -271.906 93.1966C-271.998 93.3415 -272.665 92.4928 -273.309 91.5958C-272.925 90.8322 -272.732 90.1169 -272.384 89.9904ZM-267.362 66.7539C-267.73 67.2737 -268.351 67.782 -268.666 67.7842C-268.859 67.7912 -268.811 66.6274 -268.602 66.287C-268.275 65.7304 -267.728 65.4475 -266.973 64.9415C-267.18 65.6821 -267.171 66.4549 -267.362 66.7539ZM-192.743 106.884C-192.209 106.362 -191.645 106.256 -191.116 105.943C-191.496 106.679 -191.862 107.493 -192.34 108.077C-192.74 108.556 -193.29 108.737 -194.027 109.2C-193.458 108.16 -193.106 107.236 -192.743 106.884ZM-231.925 15.306C-230.894 15.5498 -229.831 15.72 -228.837 16.111C-229.176 16.1708 -229.574 16.3663 -229.827 16.272C-230.839 15.9777 -231.817 15.5981 -232.933 15.2094C-232.537 15.2462 -232.229 15.2439 -231.925 15.306ZM-198.95 40.7781C-199.289 40.1824 -199.463 39.5062 -199.797 38.9105C-199.293 39.4395 -198.844 40.0099 -198.463 40.6263C-198.106 41.222 -197.867 41.8936 -197.271 43.2276C-198.131 41.9833 -198.603 41.406 -198.95 40.7781ZM-256.875 116.198C-257.545 116.213 -258.216 116.177 -258.881 116.093C-258.904 116.088 -259.649 115.253 -259.592 115.23C-259.189 115.051 -258.672 114.975 -258.149 114.848C-257.505 115.541 -257.22 115.906 -256.875 116.198ZM-241.473 12.9946C-242.009 12.8405 -242.233 12.484 -242.601 12.2149C-242.104 12.1597 -241.519 12.0125 -241.128 12.0769C-240.525 12.162 -240.054 12.5139 -238.982 12.99C-240.298 12.9578 -241.11 13.0751 -241.473 12.9946ZM-188.371 92.702C-188.578 93.5024 -188.779 94.3166 -189.103 95.0664C-189.416 95.7518 -189.869 96.359 -190.292 96.9754L-189.71 94.7605C-189.204 93.9854 -188.76 93.3575 -188.369 92.702H-188.371ZM-189.552 72.1703C-189.496 71.7195 -189.078 71.3814 -188.799 71.1905C-188.739 71.1491 -188.477 72.0668 -188.516 72.4279C-188.59 73.0466 -188.831 73.571 -189.133 74.5393C-189.345 73.4031 -189.614 72.697 -189.552 72.1703ZM-220.055 12.7623C-219.549 12.9003 -219.036 12.9923 -218.525 13.2108C-218.171 13.3603 -217.819 13.68 -217.472 13.9238L-219.535 13.5121L-220.055 12.7623ZM-2.64087 -56.232C-1.86316 -56.117 -1.17987 -55.542 -0.413696 -55.266C-1.02576 -54.8244 -1.61926 -54.3828 -2.36932 -54.116C-5.43976 -53.0747 -8.68921 -52.6647 -11.9222 -52.9108C-10.544 -52.2278 -9.10602 -51.8276 -7.62665 -51.386C-9.08069 -51.4274 -10.6038 -51.5585 -12.0188 -51.6505C-13.6938 -51.6252 -15.332 -51.5285 -17.0989 -51.7103C-15.7346 -50.6684 -14.3726 -49.5437 -12.7183 -48.9848C-10.0218 -47.9567 -7.15039 -47.6048 -4.34802 -47.5565C1.96991 -47.4622 8.29706 -49.1159 13.7614 -52.8004C15.3995 -53.8285 16.0046 -56.1285 16.8353 -57.7867C18.7679 -57.9202 20.9858 -58.1364 23.0336 -58.7665L22.9024 -58.6975C23.6708 -59.6704 24.421 -60.6686 25.1503 -61.6829C29.4872 -68.4172 31.3762 -76.4486 30.9091 -83.9511C30.449 -92.0171 27.4442 -99.3056 23.7491 -105.93C22.2306 -108.719 20.6776 -111.5 18.8553 -114.244C16.9687 -116.889 14.6932 -119.601 11.8954 -121.521C6.55768 -125.431 0.393921 -128.039 -5.84119 -129.451C-12.0924 -130.886 -18.4495 -131.199 -24.6501 -130.604C-35.022 -129.497 -45.1339 -125.925 -53.939 -119.541C-62.6843 -113.285 -70.0583 -103.597 -73.3415 -93.1533C-76.8801 -82.7413 -77.0619 -71.9292 -74.9291 -61.7634C-73.8523 -56.6575 -72.0071 -51.7287 -69.6925 -46.9792C-67.2076 -42.2873 -64.1913 -37.7909 -60.4134 -33.7775C-56.3295 -29.5225 -51.5186 -25.7276 -46.1716 -22.9055C-40.9097 -20.2104 -35.2753 -18.3144 -29.4541 -17.2798C-23.7436 -16.3736 -18.0101 -16.2679 -12.3801 -16.898C-6.76617 -17.611 -1.27423 -19.0945 3.98077 -21.2887C11.4307 -24.3936 18.8853 -30.2631 22.341 -36.956C23.7307 -39.4906 24.0068 -41.9699 23.5352 -44.0445C23.0842 -46.0983 21.9246 -47.7152 20.3486 -48.9204C17.162 -51.3308 12.3925 -52.1702 8.1084 -52.0943C5.62122 -52.0667 2.86261 -52.7061 1.09558 -51.9863C-1.67224 -50.8731 -4.18695 -49.4609 -7.06293 -48.6375C-9.87677 -47.8118 -12.8586 -47.223 -15.7438 -47.9981C-19.5953 -48.925 -23.3778 -49.4402 -26.5023 -50.9007C-32.413 -53.7641 -34.9232 -58.4215 -37.3458 -63.7896C-39.1911 -68.1366 -41.6621 -73.2655 -41.4389 -78.5347C-41.3791 -80.1401 -40.6221 -81.55 -40.2632 -82.9805C-39.6298 -85.098 -38.6746 -87.1055 -37.431 -88.9328C-36.1195 -90.7682 -34.3249 -92.438 -32.2542 -93.9284C-30.195 -95.4486 -27.7009 -96.5779 -25.1102 -97.4243C-22.4951 -98.3037 -19.7568 -98.7625 -16.9977 -98.7836C-12.7504 -98.9147 -8.92883 -97.4565 -5.44318 -96.0374C-2.01959 -94.8253 1.34412 -92.438 4.07745 -89.126C6.73486 -85.844 8.58466 -81.6604 8.50873 -77.6975C8.50665 -75.7165 8.08966 -73.7579 7.28473 -71.9476C5.93646 -69.0681 2.59344 -66.43 -1.67914 -65.5629C-5.82745 -64.6245 -10.3899 -65.3214 -12.8839 -67.3983C-13.7191 -67.9894 -15.1042 -68.1964 -16.2568 -69.0681C-16.809 -68.2907 -17.3451 -67.3983 -17.8007 -66.3863C-18.2125 -65.4042 -18.4265 -64.3831 -18.5277 -63.194C-18.6404 -62.4396 -17.4532 -61.699 -16.8505 -60.9216C-17.7662 -61.6438 -18.6612 -62.4741 -19.5033 -63.1733C-20.8781 -64.0341 -22.1788 -65.008 -23.3916 -66.085C-23.3801 -62.4488 -22.0617 -58.3134 -19.3192 -54.8221C-19.2087 -54.6887 -17.9778 -54.9831 -17.2554 -54.8313L-14.1033 -54.1321C-13.137 -54.323 -12.1891 -54.7577 -11.2918 -55.0659L-8.63898 -55.9675C-6.86737 -56.4781 -5.09576 -56.6506 -2.64087 -56.232ZM-22.7566 -114.909C-21.5049 -115.265 -20.0532 -115.265 -18.6841 -115.313C-18.4219 -115.302 -18.178 -114.867 -17.9295 -114.623C-19.1604 -114.403 -20.3591 -113.938 -21.551 -113.641C-22.2274 -113.473 -22.9245 -113.338 -23.5941 -113.112C-24.1923 -112.786 -24.7444 -112.346 -25.3818 -112.174C-27.6895 -111.489 -29.981 -110.755 -32.1322 -109.734C-32.245 -109.987 -32.4728 -110.451 -32.4543 -110.465C-31.2281 -111.038 -29.9879 -111.606 -28.6811 -111.999C-27.3949 -112.461 -26.0812 -112.878 -24.7307 -113.138C-24.3441 -113.225 -23.8978 -113.078 -23.4813 -113.041C-23.2628 -113.687 -23.2328 -114.729 -22.7566 -114.909ZM16.168 -91.5916C16.3981 -90.8924 16.4602 -90.1426 16.5936 -89.4296C15.9195 -89.9954 14.9049 -90.3772 14.6564 -91.0465C11.3824 -98.7307 5.45325 -105.426 -2.28656 -108.832C-5.0498 -110.201 -8.06378 -110.914 -11.0525 -111.613C-11.6323 -111.698 -12.1477 -112.135 -12.7091 -112.413C-12.0925 -112.51 -11.4482 -112.749 -10.8385 -112.675C-7.75543 -112.073 -4.73914 -111.134 -1.83557 -109.966C-1.03027 -109.649 0.235168 -110.081 1.13245 -110.412C1.59491 -110.564 1.64319 -111.387 1.87329 -111.914C2.52209 -110.845 3.31128 -109.803 3.64032 -108.768C3.93018 -107.857 3.7323 -106.946 3.66791 -106.003C4.65033 -106.104 5.66956 -106.178 6.72791 -106.219L8.60535 -106.449L8.71118 -105.729L6.698 -106.344C6.34595 -104.06 7.28015 -103.13 8.46045 -102.208C9.70288 -101.376 11.2397 -100.596 12.0773 -99.3954L13.7361 -100.805C13.8811 -100.621 14.003 -100.426 14.1272 -100.23L11.999 -99.416C13.6786 -96.9712 15.105 -94.3539 16.168 -91.5916ZM17.0976 -78.4243C17.4119 -80.7964 17.4158 -83.1994 17.1091 -85.5726C18.0708 -83.0012 18.6046 -80.2436 18.7794 -77.3847C18.7863 -76.95 18.6759 -76.4946 18.5815 -76.0599C18.4435 -75.2964 18.1881 -74.5558 17.9258 -73.829C17.6727 -73.0976 17.438 -72.3685 17.0722 -71.6854C17.1068 -72.5617 16.9572 -73.4564 16.8606 -74.2821C16.7831 -75.0624 16.6368 -75.8344 16.4235 -76.5889C16.7294 -77.3893 17.0676 -77.8838 17.0976 -78.4243ZM-46.0589 -101.822C-44.9269 -103.101 -43.8156 -104.46 -42.4628 -105.566C-41.3561 -106.624 -40.093 -107.489 -38.8114 -108.345C-38.0591 -108.901 -37.2469 -109.35 -36.4186 -109.775C-36.9846 -108.943 -37.3344 -107.967 -38.02 -107.264C-39.0944 -106.247 -40.4588 -105.509 -41.9842 -104.09C-43.1254 -103.632 -44.5588 -102.721 -46.0565 -101.822H-46.0589ZM14.3619 -64.8384C13.7891 -63.1365 13.1218 -61.2781 11.8426 -59.7555C11.5389 -59.3415 10.3194 -59.4358 9.51416 -59.4473C9.9881 -60.1074 10.3701 -60.8549 10.7244 -61.63C11.0741 -62.4005 11.4698 -63.1227 11.6931 -64.0358C12.7399 -64.3118 13.6096 -64.5072 14.3619 -64.8384ZM-65.6224 -82.9138C-65.6063 -84.2869 -65.8502 -85.8969 -65.3923 -87.0676C-64.4766 -89.1375 -63.0732 -90.851 -61.7111 -92.5162C-61.8105 -91.8537 -61.8635 -91.1851 -61.8698 -90.5152C-63.462 -87.9393 -64.5755 -85.4714 -65.6201 -82.9138H-65.6224ZM-24.8066 -119.134C-23.2651 -119.989 -21.7005 -120.836 -19.9059 -121.162C-19.0385 -121.346 -17.8582 -120.295 -16.8758 -119.739C-18.3529 -119.555 -19.7955 -119.193 -20.9251 -118.894C-22.2123 -119.059 -23.5089 -119.139 -24.8066 -119.134ZM-25.0159 -125.808L-28.8721 -125.003L-32.6545 -123.938C-33.2988 -123.777 -34.0811 -124.005 -34.7966 -123.987C-32.9836 -124.87 -31.0784 -125.505 -29.4127 -126.165C-27.5375 -126.075 -26.2676 -125.921 -25.0159 -125.808ZM-60.0545 -83.6728C-60.1719 -84.257 -60.5124 -84.947 -60.3559 -85.4369C-59.7002 -87.3689 -58.7224 -89.1743 -57.71 -90.897C-58.0712 -89.8528 -58.1609 -88.7212 -58.4624 -87.2447C-59.0191 -86.2994 -59.5161 -84.9953 -60.0545 -83.6728ZM-7.20331 -119.032C-5.94708 -119.032 -4.55969 -119.253 -3.4231 -118.761C-2.15765 -118.227 -1.10162 -117.328 -0.0685425 -116.415C-1.24194 -116.703 -2.47516 -116.744 -3.71991 -116.907C-4.82581 -117.702 -5.9903 -118.413 -7.20331 -119.032ZM27.9481 -72.1776C27.9182 -71.1196 28.1252 -69.9627 27.764 -68.9669C27.1352 -67.301 26.3021 -65.7196 25.2837 -64.2589C25.7117 -65.5376 25.9786 -66.8509 26.2317 -68.4448C26.9035 -69.5787 27.4142 -70.8597 27.9481 -72.1776ZM13.5612 -117.089C14.1088 -116.958 14.9187 -116.928 15.1787 -116.652C17.0032 -114.554 18.4987 -112.335 19.817 -110.074C18.7955 -110.904 17.8706 -111.794 16.1887 -112.99C15.5215 -114.117 14.661 -115.658 13.5612 -117.089ZM-37.019 -117.372C-37.6172 -117.142 -38.3903 -117.441 -39.1013 -117.487C-38.2178 -118.14 -37.3941 -118.961 -36.3564 -119.371C-35.8089 -119.607 -34.999 -119.423 -33.1354 -119.398C-35.1761 -118.322 -36.0527 -117.705 -37.019 -117.372ZM-22.2412 -126.627C-21.2381 -126.845 -20.2165 -127.2 -19.1995 -127.223C-18.1987 -127.243 -17.2071 -126.815 -16.2316 -126.588C-17.2623 -126.427 -18.2931 -126.353 -19.4136 -126.084L-22.2412 -126.627ZM4.59973 -53.7112C3.61035 -52.9522 2.63257 -52.1196 1.39935 -51.7701C0.77356 -51.5953 -0.151428 -52.0506 -0.917603 -52.3611C-0.174438 -52.7314 0.522705 -53.288 1.31415 -53.8239C2.51056 -53.6698 3.54596 -53.6721 4.59973 -53.7112ZM-43.5717 -34.4238C-42.6008 -33.4279 -41.8945 -32.1928 -40.9695 -31.1463C-41.6736 -31.3303 -42.449 -31.5557 -42.985 -31.9513C-44.3696 -33.0585 -45.6239 -34.3193 -46.7238 -35.7094C-44.9752 -34.8814 -43.9629 -34.8216 -43.5717 -34.4238ZM3.18243 -115.686C3.90259 -115.658 4.72852 -115.686 5.26001 -115.334C5.83978 -114.936 6.10443 -114.161 6.48407 -113.559C5.80762 -113.664 5.13116 -113.766 4.23846 -113.901C3.85883 -114.591 3.54364 -115.178 3.18243 -115.686ZM-42.4513 -121.39C-41.5034 -121.808 -40.4611 -121.997 -39.4694 -122.273C-39.9457 -121.834 -40.3276 -121.286 -40.8845 -120.98C-41.8646 -120.419 -42.9827 -120.084 -43.9858 -119.495L-44.3632 -119.932C-43.7581 -120.472 -43.1806 -121.086 -42.4513 -121.39ZM-37.2377 -120.035C-37.5828 -119.939 -38.043 -120.221 -38.4502 -120.307C-37.5681 -120.81 -36.649 -121.246 -35.7007 -121.611C-35.3855 -121.73 -34.9369 -121.551 -33.9061 -121.424C-35.4568 -120.771 -36.322 -120.316 -37.2377 -120.035ZM-49.8759 -50.65C-49.3812 -50.2291 -48.7646 -49.8818 -48.4563 -49.3804C-48.1526 -48.9411 -48.2216 -48.281 -48.1135 -47.7014C-48.5898 -48.1775 -49.1626 -48.5754 -49.7838 -49.3252L-49.8759 -50.65ZM14.0398 -106.675C12.9101 -107.705 11.6401 -108.57 10.4437 -109.517C10.0457 -109.856 9.78796 -110.433 9.43134 -110.884C10.1354 -110.594 10.8049 -110.244 10.9453 -110.159C12.3488 -108.731 13.2322 -107.73 14.0421 -106.675H14.0398ZM-12.0994 -126.312C-11.5931 -126.454 -11.041 -126.77 -10.5624 -126.691C-9.69043 -126.542 -8.87372 -126.204 -8.04999 -125.877C-8.71954 -125.886 -9.38904 -125.813 -10.2748 -125.762L-12.0994 -126.312ZM-43.5833 -43.6903C-42.755 -43.2993 -41.9083 -42.975 -41.1513 -42.5081C-40.8752 -42.3402 -40.7855 -41.8135 -40.5991 -41.4501L-42.8171 -42.101L-43.5833 -43.6903ZM15.5928 -97.2472C15.4202 -97.6129 15.6227 -98.1534 15.6158 -98.6065C16.0806 -98.1258 16.4948 -97.606 16.8467 -97.0402C17.0493 -96.64 17.1942 -96.1823 17.5255 -94.6183C16.4672 -96.1754 15.8574 -96.6239 15.5928 -97.2472ZM26.8713 -91.1316L26.4065 -93.7996C26.5952 -93.6501 26.8759 -93.5419 26.9564 -93.3372C27.3636 -92.3943 27.6167 -91.3708 28.1413 -89.3859C27.3406 -90.4853 26.9449 -90.782 26.8713 -91.1316ZM20.9813 -103.883C20.8179 -104.193 20.7787 -104.55 20.6821 -104.888C21.0733 -104.414 21.5035 -103.961 21.8464 -103.446C21.9752 -103.25 21.9153 -102.93 21.9614 -102.374C21.5288 -103.038 21.2067 -103.446 20.9789 -103.883H20.9813ZM16.3107 -62.4442C16.1726 -62.5408 16.4119 -63.1893 16.4303 -63.6079C16.8974 -63.7114 17.4219 -63.953 17.8292 -63.9024C17.9902 -63.8817 17.866 -63.1687 17.8384 -62.343C17.1711 -62.32 16.6236 -62.228 16.313 -62.4442H16.3107ZM2.90405 -56.1538C3.28827 -56.1814 3.80597 -56.0043 3.9762 -55.7651C4.08203 -55.6179 3.61267 -54.967 3.37567 -54.921C2.98682 -54.8635 2.60492 -55.0659 2.02972 -55.3074C2.41168 -55.6271 2.68549 -56.1492 2.90405 -56.1538ZM9.68439 -119.437C9.35541 -119.794 9.33246 -120.251 9.17371 -120.67C9.66833 -120.477 10.2527 -120.353 10.6324 -120.056C10.9476 -119.814 11.0189 -119.371 11.2834 -118.832C10.5656 -119.097 9.90527 -119.198 9.68439 -119.437ZM-54.413 -103.873L-53.1292 -105.329C-53.1315 -105.076 -53.0302 -104.713 -53.1522 -104.598C-53.6124 -104.149 -54.1507 -103.788 -54.7144 -103.326C-54.6039 -103.554 -54.5304 -103.728 -54.413 -103.873ZM-32.5717 -117.213C-32.9744 -117.103 -33.4045 -117.133 -33.8279 -117.098C-33.4368 -117.31 -33.0618 -117.577 -32.6407 -117.715C-32.2427 -117.862 -31.7917 -117.836 -30.8921 -117.882C-31.7595 -117.572 -32.1576 -117.34 -32.5717 -117.213ZM24.4094 -80.0849C24.7752 -79.7514 25.1411 -79.4179 25.4908 -79.0246C25.5023 -79.0085 25.2768 -78.3346 25.2239 -78.3553C24.8373 -78.5002 24.4692 -78.7371 24.0574 -78.9579C24.2346 -79.5352 24.322 -79.8112 24.4094 -80.0849ZM-58.605 -99.5034C-58.8949 -99.285 -59.2676 -99.3425 -59.6059 -99.2781C-59.5092 -99.5771 -59.4678 -99.975 -59.2975 -100.152C-59.0376 -100.437 -58.6855 -100.573 -57.97 -100.918C-58.3474 -100.198 -58.4026 -99.6461 -58.605 -99.5034ZM0.246643 -120.958C0.752808 -120.889 1.28204 -120.826 1.73755 -120.603C2.15863 -120.403 2.49683 -120.038 2.86493 -119.743L1.44763 -119.987C1.06769 -120.335 0.666626 -120.659 0.246643 -120.958ZM-12.7228 -119.161C-12.9851 -119.239 -13.137 -119.679 -13.2175 -119.966C-13.2359 -120.028 -12.6539 -120.233 -12.4399 -120.171C-12.0787 -120.063 -11.7933 -119.794 -11.248 -119.444C-11.9567 -119.295 -12.4146 -119.072 -12.7228 -119.161ZM-54.4659 -112.882C-54.2841 -113.168 -54.1438 -113.48 -53.9045 -113.726C-53.7366 -113.899 -53.4398 -113.984 -53.2028 -114.104L-53.8033 -112.864L-54.4659 -112.882Z" fill="#8167A9"/>
</svg>
