<svg width="36" height="36" viewBox="0 0 36 36" fill="none" xmlns="http://www.w3.org/2000/svg">
<path d="M19.5326 17.7133L14.3701 22.8758C14.0985 23.149 13.9461 23.5186 13.9461 23.9039C13.9461 24.2892 14.0985 24.6588 14.3701 24.932C14.5057 25.0687 14.667 25.1772 14.8447 25.2512C15.0224 25.3253 15.213 25.3634 15.4055 25.3634C15.5981 25.3634 15.7887 25.3253 15.9664 25.2512C16.1441 25.1772 16.3054 25.0687 16.441 24.932L22.6243 18.7487C22.761 18.6131 22.8695 18.4518 22.9435 18.2741C23.0175 18.0964 23.0557 17.9058 23.0557 17.7133C23.0557 17.5208 23.0175 17.3302 22.9435 17.1524C22.8695 16.9747 22.761 16.8134 22.6243 16.6779L16.441 10.4216C16.3047 10.2865 16.1431 10.1795 15.9654 10.1069C15.7877 10.0344 15.5975 9.99759 15.4055 9.9987C15.2136 9.99759 15.0234 10.0344 14.8457 10.1069C14.668 10.1795 14.5064 10.2865 14.3701 10.4216C14.0985 10.6949 13.9461 11.0645 13.9461 11.4497C13.9461 11.835 14.0985 12.2046 14.3701 12.4779L19.5326 17.7133Z" fill="#C4C3CA" fill-opacity="0.7"/>
</svg>
