<svg width="36" height="36" viewBox="0 0 36 36" fill="none" xmlns="http://www.w3.org/2000/svg">
<path d="M16.6422 17.681L21.8047 12.5185C22.0763 12.2453 22.2288 11.8757 22.2288 11.4904C22.2288 11.1051 22.0763 10.7355 21.8047 10.4623C21.6691 10.3256 21.5078 10.2171 21.3301 10.143C21.1524 10.069 20.9618 10.0309 20.7693 10.0309C20.5767 10.0309 20.3861 10.069 20.2084 10.143C20.0307 10.2171 19.8694 10.3256 19.7338 10.4623L13.5505 16.6456C13.4138 16.7812 13.3053 16.9425 13.2313 17.1202C13.1573 17.2979 13.1191 17.4885 13.1191 17.681C13.1191 17.8735 13.1573 18.0641 13.2313 18.2418C13.3053 18.4196 13.4138 18.5809 13.5505 18.7164L19.7338 24.9727C19.8701 25.1078 20.0317 25.2148 20.2094 25.2873C20.3871 25.3599 20.5773 25.3967 20.7693 25.3956C20.9612 25.3967 21.1514 25.3599 21.3291 25.2873C21.5068 25.2148 21.6684 25.1078 21.8047 24.9727C22.0763 24.6994 22.2288 24.3298 22.2288 23.9445C22.2288 23.5593 22.0763 23.1897 21.8047 22.9164L16.6422 17.681Z" fill="#C4C3CA" fill-opacity="0.7"/>
</svg>
