<svg width="30" height="30" viewBox="0 0 30 30" fill="none" xmlns="http://www.w3.org/2000/svg">
<path d="M21.6627 3.40745C20.7699 3.62579 20.4267 3.87142 18.9023 5.37642C17.2491 7.01008 17.4167 6.92431 16.9216 6.42134C16.1886 5.67664 16.134 5.70393 14.1338 7.71579C12.3325 9.53661 12.2233 9.76275 12.894 10.3398C13.0031 10.4373 13.1669 10.5971 13.2488 10.6946L13.4008 10.8701L9.3732 14.9016C4.91669 19.362 5.00247 19.2567 5.00247 20.2159C5.00637 20.4966 5.06095 20.8709 5.12724 21.0463L5.2442 21.366L4.47611 22.1341C3.08808 23.5183 2.92822 24.8088 4.00044 25.9395C5.09604 27.0897 6.47627 26.9338 7.90329 25.495L8.6363 24.7581L8.95601 24.8751C9.13146 24.9375 9.50576 24.9921 9.78259 24.996C10.7417 25.0038 10.6404 25.0895 15.1008 20.6291L19.1323 16.6015L19.3077 16.7536C19.4052 16.8394 19.5651 16.9992 19.6625 17.1084C20.2396 17.779 20.4657 17.6698 22.2865 15.8685C24.2984 13.8683 24.3257 13.8138 23.581 13.0808C23.078 12.5856 22.9923 12.7532 24.6259 11.1001C26.1582 9.5522 26.4194 9.174 26.6183 8.22656C27.2109 5.38032 24.4817 2.72513 21.6627 3.40745ZM23.5615 4.86956C24.9924 5.40371 25.7293 7.23622 25.047 8.56967C24.9066 8.84259 24.3335 9.47812 23.2067 10.6166C21.1987 12.6402 21.2104 12.609 21.9668 13.4083L22.3684 13.8333L21.3976 14.8041C20.8634 15.3383 20.3956 15.7749 20.3488 15.7749C20.2474 15.7749 14.2274 9.75495 14.2274 9.65358C14.2274 9.61069 14.6641 9.13891 15.1982 8.60476L16.1691 7.63392L16.5863 8.03161C17.3856 8.78801 17.3817 8.78801 19.3701 6.80734C21.5496 4.63562 22.1696 4.351 23.5615 4.86956ZM16.2938 13.7436C17.3037 14.7495 18.1264 15.5995 18.1264 15.6385C18.1264 15.6736 17.9158 15.9114 17.6624 16.1687L17.1984 16.6327H13.4086C10.3012 16.6327 9.63053 16.6132 9.68122 16.5313C9.83328 16.2779 14.2781 11.8877 14.3639 11.8994C14.4184 11.9072 15.2879 12.7377 16.2938 13.7436ZM15.787 18.0012C15.787 18.1065 10.3012 23.5105 10.1257 23.5768C9.78649 23.7054 9.50576 23.6586 9.15096 23.4169C8.53102 22.9958 8.44135 23.0348 7.21318 24.2357C5.90703 25.5106 5.33388 25.651 4.84261 24.8166C4.48391 24.2123 4.59698 23.9705 5.83295 22.7112C6.95975 21.5649 6.99873 21.4635 6.58545 20.8514C6.14486 20.2042 6.23064 19.9702 7.33404 18.8395L8.18402 17.9701L11.9855 17.9623C14.0753 17.9623 15.787 17.9779 15.787 18.0012Z" fill="#C4C3CA" stroke="#C4C3CA" stroke-width="0.7"/>
</svg>
