<svg width="31" height="31" viewBox="0 0 31 31" fill="none" xmlns="http://www.w3.org/2000/svg">
<path d="M18.6813 11.3767L13.3188 16.7517L11.2563 14.6892C11.1442 14.5583 11.0063 14.452 10.8512 14.377C10.6961 14.302 10.5272 14.2598 10.3551 14.2532C10.1829 14.2465 10.0113 14.2755 9.85085 14.3384C9.69044 14.4012 9.54476 14.4965 9.42294 14.6183C9.30112 14.7402 9.2058 14.8858 9.14296 15.0463C9.08011 15.2067 9.05111 15.3783 9.05776 15.5505C9.06441 15.7226 9.10657 15.8915 9.1816 16.0466C9.25663 16.2017 9.3629 16.3396 9.49375 16.4517L12.4313 19.4017C12.5481 19.5175 12.6866 19.6092 12.8389 19.6714C12.9912 19.7336 13.1542 19.7651 13.3188 19.7642C13.6467 19.7628 13.9609 19.6326 14.1938 19.4017L20.4438 13.1517C20.5609 13.0355 20.6539 12.8972 20.7174 12.7449C20.7808 12.5926 20.8135 12.4292 20.8135 12.2642C20.8135 12.0991 20.7808 11.9358 20.7174 11.7834C20.6539 11.6311 20.5609 11.4929 20.4438 11.3767C20.2095 11.1438 19.8927 11.0132 19.5625 11.0132C19.2323 11.0132 18.9155 11.1438 18.6813 11.3767ZM15.2813 2.88916C12.809 2.88916 10.3922 3.62227 8.33663 4.99579C6.28101 6.36931 4.67886 8.32154 3.73276 10.6056C2.78667 12.8897 2.53912 15.403 3.02144 17.8278C3.50375 20.2525 4.69426 22.4798 6.44242 24.228C8.19058 25.9761 10.4179 27.1667 12.8426 27.649C15.2674 28.1313 17.7807 27.8837 20.0648 26.9376C22.3489 25.9916 24.3011 24.3894 25.6746 22.3338C27.0481 20.2782 27.7812 17.8614 27.7812 15.3892C27.7812 13.7476 27.4579 12.1222 26.8297 10.6056C26.2016 9.08905 25.2808 7.71106 24.1201 6.55032C22.9594 5.38959 21.5814 4.46885 20.0648 3.84067C18.5482 3.21248 16.9228 2.88916 15.2813 2.88916ZM15.2813 25.3892C13.3034 25.3892 11.37 24.8027 9.72555 23.7038C8.08106 22.605 6.79934 21.0432 6.04246 19.216C5.28558 17.3887 5.08755 15.3781 5.4734 13.4383C5.85925 11.4984 6.81166 9.71662 8.21019 8.31809C9.60871 6.91957 11.3905 5.96716 13.3304 5.58131C15.2702 5.19545 17.2808 5.39349 19.1081 6.15036C20.9353 6.90724 22.4971 8.18896 23.5959 9.83346C24.6948 11.4779 25.2812 13.4113 25.2812 15.3892C25.2812 18.0413 24.2277 20.5849 22.3523 22.4602C20.477 24.3356 17.9334 25.3892 15.2813 25.3892Z" fill="#C4C3CA"/>
</svg>
