<svg width="31" height="31" viewBox="0 0 31 31" fill="none" xmlns="http://www.w3.org/2000/svg">
<path d="M28.539 9.22167C27.3962 6.93704 25.6395 5.01594 23.466 3.6738C21.2924 2.33165 18.788 1.62152 16.2335 1.62305C13.679 1.62458 11.1754 2.33769 9.00346 3.68244C6.83154 5.02718 5.07718 6.95038 3.93708 9.23637C2.79699 11.5224 2.31626 14.0808 2.54879 16.6247C2.78132 19.1686 3.71792 21.5974 5.25357 23.6388C6.78921 25.6803 8.86318 27.2535 11.2429 28.1822C13.6226 29.1109 16.214 29.3583 18.7265 28.8967C19.3583 28.7778 19.9601 28.5342 20.4966 28.18C21.0332 27.8259 21.4938 27.3684 21.8515 26.8342C22.2369 26.2534 22.5029 25.6017 22.6338 24.9171C22.7647 24.2325 22.758 23.5287 22.614 22.8467C22.5353 22.4345 22.4934 22.0162 22.489 21.5967C22.4945 20.3854 22.8518 19.2018 23.5176 18.1898C24.1833 17.1779 25.1288 16.3812 26.239 15.8967C26.8376 15.6287 27.3749 15.2408 27.8178 14.7571C28.2606 14.2734 28.5997 13.704 28.814 13.0842C29.0307 12.4508 29.1181 11.7803 29.0708 11.1125C29.0236 10.4447 28.8427 9.79324 28.539 9.19667V9.22167ZM26.414 12.2717C26.3073 12.5708 26.1417 12.8455 25.927 13.0796C25.7123 13.3136 25.4529 13.5022 25.164 13.6342C23.6265 14.3224 22.3203 15.4399 21.4023 16.8523C20.4843 18.2647 19.9936 19.9121 19.989 21.5967C19.9908 22.1843 20.0494 22.7703 20.164 23.3467C20.2403 23.6989 20.2454 24.0629 20.1788 24.4171C20.1123 24.7713 19.9755 25.1087 19.7765 25.4092C19.6081 25.6722 19.3866 25.897 19.1261 26.0692C18.8656 26.2415 18.5719 26.3573 18.264 26.4092C17.5963 26.5346 16.9184 26.5974 16.239 26.5967C14.7317 26.5974 13.2396 26.2952 11.8514 25.7081C10.4632 25.121 9.20705 24.2609 8.15769 23.1789C7.10832 22.0968 6.28709 20.815 5.74275 19.4094C5.19842 18.0039 4.94209 16.5032 4.98898 14.9967C5.086 12.1877 6.22524 9.51536 8.18477 7.50037C10.1443 5.48538 12.7838 4.27202 15.589 4.09667H16.2265C18.3212 4.0972 20.3741 4.68253 22.1541 5.78675C23.9341 6.89098 25.3705 8.47023 26.3015 10.3467C26.588 10.9404 26.6285 11.6233 26.414 12.2467V12.2717Z" fill="#C4C3CA"/>
<path d="M15.6812 13.6331C16.0201 13.4066 16.4186 13.2857 16.8262 13.2857C17.1058 13.2854 17.3816 13.2904 17.6387 13.4004C17.8957 13.5104 18.1285 13.6199 18.3213 13.8223C18.5142 14.0248 18.6638 14.2643 18.7611 14.5264C18.8584 14.7885 18.9013 15.0676 18.8874 15.3468C18.8874 15.7545 18.7665 16.153 18.54 16.4919C18.3135 16.8309 17.9916 17.095 17.615 17.251C17.2384 17.407 16.824 17.4479 16.4241 17.3683C16.0243 17.2888 15.6571 17.0925 15.3688 16.8042C15.0806 16.516 14.8843 16.1487 14.8047 15.7489C14.7252 15.3491 14.766 14.9347 14.922 14.5581C15.078 14.1815 15.3422 13.8596 15.6812 13.6331Z" fill="#C4C3CA"/>
<path d="M19.8062 7.34743C20.1451 7.12095 20.5436 7.00007 20.9512 7.00007C21.2308 6.99972 21.5066 7.00478 21.7637 7.11475C22.0207 7.22471 22.2535 7.33423 22.4463 7.53667C22.6392 7.73911 22.7888 7.97866 22.8861 8.24074C22.9834 8.50283 23.0263 8.78197 23.0124 9.06118C23.0124 9.46883 22.8915 9.86732 22.665 10.2063C22.4385 10.5452 22.1166 10.8094 21.74 10.9654C21.3634 11.1214 20.949 11.1622 20.5491 11.0827C20.1493 11.0032 19.7821 10.8069 19.4938 10.5186C19.2056 10.2304 19.0093 9.8631 18.9297 9.46328C18.8502 9.06347 18.891 8.64905 19.047 8.27243C19.203 7.89581 19.4672 7.57391 19.8062 7.34743Z" fill="#C4C3CA"/>
<path d="M11.3726 7.68386C11.7115 7.45738 12.11 7.3365 12.5177 7.3365C12.7972 7.33615 13.0731 7.34121 13.3301 7.45117C13.5871 7.56114 13.82 7.67065 14.0128 7.8731C14.2056 8.07554 14.3552 8.31509 14.4525 8.57717C14.5498 8.83925 14.5927 9.11839 14.5788 9.39761C14.5788 9.80526 14.4579 10.2037 14.2314 10.5427C14.0049 10.8816 13.683 11.1458 13.3064 11.3018C12.9298 11.4578 12.5154 11.4986 12.1155 11.4191C11.7157 11.3396 11.3485 11.1433 11.0602 10.855C10.772 10.5668 10.5757 10.1995 10.4961 9.79971C10.4166 9.39989 10.4574 8.98547 10.6134 8.60885C10.7694 8.23224 11.0336 7.91034 11.3726 7.68386Z" fill="#C4C3CA"/>
<path d="M7.60401 14.7034C7.94295 14.4769 8.34145 14.356 8.7491 14.356C9.02866 14.3557 9.3045 14.3607 9.56152 14.4707C9.81855 14.5807 10.0514 14.6902 10.2442 14.8926C10.437 15.0951 10.5866 15.3346 10.6839 15.5967C10.7812 15.8588 10.8242 16.1379 10.8102 16.4171C10.8102 16.8248 10.6893 17.2233 10.4628 17.5622C10.2364 17.9012 9.91447 18.1654 9.53785 18.3214C9.16123 18.4774 8.74681 18.5182 8.34699 18.4386C7.94718 18.3591 7.57993 18.1628 7.29167 17.8746C7.00342 17.5863 6.80712 17.2191 6.72759 16.8192C6.64806 16.4194 6.68888 16.005 6.84488 15.6284C7.00088 15.2518 7.26506 14.9299 7.60401 14.7034Z" fill="#C4C3CA"/>
<path d="M13.4351 21.3967C13.774 21.1703 14.1725 21.0494 14.5802 21.0494C14.8597 21.049 15.1356 21.0541 15.3926 21.1641C15.6496 21.274 15.8825 21.3835 16.0753 21.586C16.2681 21.7884 16.4177 22.028 16.515 22.2901C16.6123 22.5521 16.6552 22.8313 16.6413 23.1105C16.6413 23.5181 16.5204 23.9166 16.2939 24.2556C16.0674 24.5945 15.7455 24.8587 15.3689 25.0147C14.9923 25.1707 14.5779 25.2115 14.178 25.132C13.7782 25.0525 13.411 24.8562 13.1227 24.5679C12.8345 24.2797 12.6382 23.9124 12.5586 23.5126C12.4791 23.1128 12.5199 22.6984 12.6759 22.3217C12.8319 21.9451 13.0961 21.6232 13.4351 21.3967Z" fill="#C4C3CA"/>
</svg>
