<svg width="30" height="30" viewBox="0 0 30 30" fill="none" xmlns="http://www.w3.org/2000/svg">
<path d="M12.75 22C13.0815 22 13.3995 21.8683 13.6339 21.6339C13.8683 21.3995 14 21.0815 14 20.75V13.25C14 12.9185 13.8683 12.6005 13.6339 12.3661C13.3995 12.1317 13.0815 12 12.75 12C12.4185 12 12.1005 12.1317 11.8661 12.3661C11.6317 12.6005 11.5 12.9185 11.5 13.25V20.75C11.5 21.0815 11.6317 21.3995 11.8661 21.6339C12.1005 21.8683 12.4185 22 12.75 22ZM25.25 7H20.25V5.75C20.25 4.75544 19.8549 3.80161 19.1517 3.09835C18.4484 2.39509 17.4946 2 16.5 2H14C13.0054 2 12.0516 2.39509 11.3483 3.09835C10.6451 3.80161 10.25 4.75544 10.25 5.75V7H5.25C4.91848 7 4.60054 7.1317 4.36612 7.36612C4.1317 7.60054 4 7.91848 4 8.25C4 8.58152 4.1317 8.89946 4.36612 9.13388C4.60054 9.3683 4.91848 9.5 5.25 9.5H6.5V23.25C6.5 24.2446 6.89509 25.1984 7.59835 25.9017C8.30161 26.6049 9.25544 27 10.25 27H20.25C21.2446 27 22.1984 26.6049 22.9017 25.9017C23.6049 25.1984 24 24.2446 24 23.25V9.5H25.25C25.5815 9.5 25.8995 9.3683 26.1339 9.13388C26.3683 8.89946 26.5 8.58152 26.5 8.25C26.5 7.91848 26.3683 7.60054 26.1339 7.36612C25.8995 7.1317 25.5815 7 25.25 7ZM12.75 5.75C12.75 5.41848 12.8817 5.10054 13.1161 4.86612C13.3505 4.6317 13.6685 4.5 14 4.5H16.5C16.8315 4.5 17.1495 4.6317 17.3839 4.86612C17.6183 5.10054 17.75 5.41848 17.75 5.75V7H12.75V5.75ZM21.5 23.25C21.5 23.5815 21.3683 23.8995 21.1339 24.1339C20.8995 24.3683 20.5815 24.5 20.25 24.5H10.25C9.91848 24.5 9.60054 24.3683 9.36612 24.1339C9.1317 23.8995 9 23.5815 9 23.25V9.5H21.5V23.25ZM17.75 22C18.0815 22 18.3995 21.8683 18.6339 21.6339C18.8683 21.3995 19 21.0815 19 20.75V13.25C19 12.9185 18.8683 12.6005 18.6339 12.3661C18.3995 12.1317 18.0815 12 17.75 12C17.4185 12 17.1005 12.1317 16.8661 12.3661C16.6317 12.6005 16.5 12.9185 16.5 13.25V20.75C16.5 21.0815 16.6317 21.3995 16.8661 21.6339C17.1005 21.8683 17.4185 22 17.75 22Z" fill="#C4C3CA" fill-opacity="0.7"/>
</svg>
