<svg width="45" height="45" viewBox="0 0 45 45" fill="none" xmlns="http://www.w3.org/2000/svg">
<path d="M18.7006 0.17258C18.0674 0.52508 16.2424 2.47508 16.2424 2.79008C16.2424 3.77258 17.1288 3.60008 18.2313 2.40008C19.2072 1.34258 19.2072 1.34258 19.6169 2.06258C22.5966 7.32758 16.816 13.1476 11.5866 10.1476C10.8491 9.72008 10.7374 9.90008 13.1957 7.47758C15.5794 5.12258 15.9146 4.48508 14.827 4.38008C14.1715 4.32008 9.53809 8.98508 9.53809 9.70508C9.53809 10.2976 10.2681 10.9726 11.5792 11.5876C17.6801 14.4601 23.9449 7.97258 20.9503 1.88258C20.1905 0.33758 19.4306 -0.239921 18.7006 0.17258Z" fill="#C4C3CA"/>
<path d="M29.3979 0.180075C28.9956 0.375075 29.0031 0.352575 28.2954 2.97758C27.5356 5.79758 27.5505 6.16508 28.4891 6.49508C28.8317 6.61508 33.4949 5.32508 33.8376 5.01008C35.0369 3.92258 33.0331 0.825075 30.7462 0.225075C29.7629 -0.0299249 29.8299 -0.0299249 29.3979 0.180075ZM30.9622 1.63508C31.8189 2.07758 32.7798 3.29258 32.7798 3.93008C32.7798 4.09508 29.2415 5.19008 29.1223 5.06258C29.0999 5.04008 29.3085 4.21508 29.5841 3.22508C29.8597 2.23507 30.0832 1.41008 30.0907 1.38758C30.113 1.28258 30.4706 1.38008 30.9622 1.63508Z" fill="#C4C3CA"/>
<path d="M17.3154 4.7326C16.5854 5.2501 17.01 5.8501 18.105 5.8501C18.5221 5.8501 18.9468 5.7676 19.0436 5.6701C19.5129 5.1976 18.9542 4.5001 18.105 4.5001C17.8517 4.5001 17.5016 4.6051 17.3154 4.7326Z" fill="#C4C3CA"/>
<path d="M23.3343 6.19505C21.8891 7.74755 21.0399 11.0626 21.5986 13.0126C21.7252 13.4701 21.7029 13.5076 21.2187 13.7401C20.7196 13.9801 20.0641 14.6401 19.93 15.0301C19.8853 15.1651 19.7065 15.0976 19.3191 14.8051C17.9261 13.7326 15.9372 13.2451 14.6783 13.6801C14.1121 13.8676 14.0376 13.8601 13.1139 13.3876C6.45434 9.99006 0.413025 19.6501 6.55118 23.8876C6.8715 24.1126 6.8864 24.1801 6.73741 24.5251C6.49904 25.0501 6.52138 26.2426 6.78211 26.7001C7.10987 27.2776 7.08008 27.3001 5.9478 27.3001C4.97195 27.3001 4.86021 27.3301 4.44305 27.7576L3.9812 28.2226L4.07059 29.5951C4.4654 35.6101 8.36134 41.3475 14.0079 44.2725L15.2742 44.925H22.1424H29.0106L30.411 44.22C35.6404 41.5875 39.3277 36.39 40.177 30.4576C40.5494 27.8776 40.2291 27.3001 38.4487 27.3001C37.2941 27.3001 36.9514 26.9701 37.8826 26.7676C40.9591 26.1001 42.0616 22.5826 39.6332 21.1801L39.2309 20.9401L39.7449 20.2201C41.3614 17.9551 41.1901 15.0526 39.365 13.7326C38.6797 13.2376 38.6275 13.1551 38.553 12.4126C38.3817 10.8076 37.6219 9.69006 36.9514 10.0501C36.579 10.2526 36.579 10.5826 36.9365 11.4151C37.5101 12.7501 37.5027 13.0501 36.8919 13.0501C36.4524 13.0501 36.3555 12.9976 36.3555 12.7426C36.3555 10.0576 32.0722 8.47506 29.9864 10.3951L29.6512 10.7026L29.2713 10.3426L28.8839 9.98256L29.2266 9.69756C30.493 8.67006 32.6011 8.25755 33.9718 8.77505C35.3573 9.30005 35.9086 9.15755 35.7 8.34005C35.3275 6.82505 30.7164 6.93005 28.6828 8.49755L27.99 9.03005L26.3065 7.36506C24.3921 5.46006 24.1239 5.35505 23.3343 6.19505ZM27.0738 10.0276L29.897 12.8551L29.1819 13.1851C28.3625 13.5601 27.6474 14.4826 27.2451 15.6751C27.1036 16.0876 26.9546 16.4101 26.9024 16.3876C26.8578 16.3651 26.5523 16.3501 26.232 16.3501C25.6733 16.3501 25.6286 16.3126 25.2562 15.5626C24.7794 14.6101 24.2431 14.0176 23.528 13.6426C22.3957 13.0576 22.5372 9.75755 23.7738 7.78505C24.2356 7.05005 23.811 6.76505 27.0738 10.0276ZM33.644 11.0851C34.3219 11.4376 34.6422 11.7751 34.9327 12.4876C35.253 13.2526 35.253 13.2601 34.4113 13.6501C34.0016 13.8451 33.5844 14.1001 33.495 14.2126C33.3535 14.3776 33.063 14.1526 31.9381 13.0276C30.7909 11.8801 30.5898 11.6026 30.7388 11.4226C31.2602 10.7926 32.7352 10.6201 33.644 11.0851ZM12.1828 14.3251C12.8607 14.6026 12.9352 14.7601 12.5925 15.2101C12.3765 15.4951 12.369 15.4951 11.7433 15.2101C7.33335 13.2076 4.14508 20.0626 8.39114 22.4251C8.62951 22.5601 8.60717 22.6051 8.13042 22.8676L7.59407 23.1526L6.91619 22.4926C3.06495 18.6826 7.19926 12.2626 12.1828 14.3251ZM30.9995 14.3551C31.4986 14.7076 31.7072 14.9701 32.0499 15.7126C32.2137 16.0651 32.3702 16.3501 32.4 16.3501C32.4298 16.3501 32.5564 16.3876 32.6756 16.4326C32.8097 16.4851 33.2566 16.1926 33.8153 15.6901C37.8751 12.0451 41.8754 16.2376 38.0837 20.1676C37.1228 21.1651 37.1451 21.2626 38.5307 22.0501C40.5643 23.2051 39.8641 24.9226 37.0706 25.6351C35.8564 25.9501 35.6404 26.1901 35.983 26.8501C36.4151 27.6901 35.9309 27.3076 33.8228 25.1701L31.7295 23.0401L33.6663 21.1501C35.7149 19.1551 35.9979 18.6676 35.3126 18.3001C34.888 18.0676 34.7316 18.1876 32.6458 20.3026L30.8058 22.1701L29.383 20.6701C27.044 18.2176 26.4257 18.2251 25.1817 20.6926C24.7496 21.5551 24.5485 21.2551 24.5261 19.7101C24.5038 17.8951 25.2413 17.2501 26.7609 17.7751C27.774 18.1201 28.0422 18.0001 28.1912 17.1226C28.5562 14.9776 29.9343 13.6201 30.9995 14.3551ZM23.1033 14.9251C23.3417 15.0526 23.7365 15.5026 23.9824 15.9301L24.4219 16.7026L23.9824 17.1601C23.1853 17.9701 22.9842 19.9951 23.5429 21.4801C23.8408 22.2826 23.8334 22.5076 23.5056 22.2376C23.2374 22.0126 21.7774 21.6001 21.2559 21.6001C20.8835 21.6001 20.5632 21.3526 19.4234 20.1751C18.0826 18.7876 17.6878 18.5551 17.3153 18.9301C16.9428 19.3051 17.144 19.7401 18.172 20.7676L19.2074 21.8026L18.3954 22.1326C16.9503 22.7251 15.4083 24.3301 15.1178 25.5376C15.006 26.0101 14.9018 26.0326 14.3133 25.7326C12.6372 24.8551 12.7862 23.2126 14.6112 22.4026C15.52 21.9976 15.5424 21.5851 14.7081 20.7226C12.8234 18.7951 12.7564 16.0126 14.5665 15.1351C15.8553 14.5051 17.7399 14.9926 19.0361 16.3051C19.9002 17.1751 20.3322 17.1751 20.6973 16.3051C21.241 15.0301 22.2243 14.4676 23.1033 14.9251ZM11.3261 16.4401C12.1083 16.7551 12.2051 17.4001 11.4677 17.4001C10.1045 17.4001 8.8083 18.9226 8.7934 20.5351V21.2026L8.42839 20.8501C6.32771 18.8701 8.62951 15.3601 11.3261 16.4401ZM12.2647 19.3426C12.4063 19.7551 12.7564 20.3851 13.032 20.7526L13.5385 21.4201L12.9501 21.8926C11.0505 23.4301 11.4826 25.6651 13.9334 26.9701L14.5293 27.2926L11.5571 27.2551L8.58482 27.2251L8.24215 26.7151C7.41529 25.4851 8.05592 24.0976 9.6873 23.5651C10.6408 23.2501 10.7451 23.0101 10.3503 21.9751C9.84374 20.6476 10.2609 19.1551 11.2516 18.7426C11.8401 18.4951 11.9966 18.5926 12.2647 19.3426ZM28.1092 22.5151C27.4909 23.7601 27.6548 26.2426 28.3923 26.8576C28.7797 27.1801 28.6158 27.3001 27.7889 27.3001C27.0142 27.3001 26.9695 27.2776 26.9695 26.9251C26.9695 26.3551 26.4331 24.9376 26.0085 24.3676C25.4275 23.6026 25.6137 22.3951 26.53 20.9401L26.9918 20.2051L27.7442 20.9626L28.504 21.7201L28.1092 22.5151ZM31.6029 24.8326C32.7799 26.0326 33.7706 27.0751 33.8004 27.1576C33.9047 27.4726 30.7016 27.3226 30.2323 26.9926C29.2043 26.2501 28.7424 24.7951 29.1223 23.4901C29.4203 22.4551 29.0851 22.2751 31.6029 24.8326ZM22.8724 23.3776C24.3101 24.0751 25.3381 25.3426 25.7106 26.8876C25.8074 27.2776 25.7851 27.3001 25.2711 27.3001C24.8614 27.3001 24.7347 27.2401 24.7347 27.0376C24.7198 26.1901 23.6695 24.8326 22.5894 24.2776C20.4887 23.1826 17.4643 24.5551 17.0471 26.7901C16.9652 27.2551 16.9056 27.3001 16.4363 27.3001C15.9297 27.3001 15.9223 27.2926 16.0266 26.8126C16.6747 23.7751 20.1162 22.0576 22.8724 23.3776ZM21.9562 25.4101C22.4702 25.6201 23.3194 26.5426 23.4386 27.0226C23.5131 27.2851 23.379 27.3001 20.8537 27.3001H18.1869L18.3433 26.8876C18.8498 25.5301 20.5706 24.8251 21.9562 25.4101ZM38.9329 29.4751C38.918 29.9701 38.8659 30.5926 38.8138 30.8626L38.7244 31.3501H35.4839C32.0797 31.3501 31.886 31.3876 31.886 32.0251C31.886 32.6626 32.0871 32.7001 35.335 32.7001H38.4264L38.2178 33.3076C36.7131 37.5975 33.6589 41.1 29.6885 43.11L28.6158 43.65H22.1647H15.7212L14.9241 43.275C11.8923 41.85 8.93493 39.0225 7.31845 36.0001C6.81935 35.055 5.96269 33.0226 5.96269 32.7751C5.96269 32.7301 11.3261 32.7001 17.874 32.7001C30.8207 32.7001 30.0982 32.7451 30.0982 31.9726C30.0982 31.3426 30.2695 31.3501 17.5984 31.3501H5.56044L5.404 30.0376C5.31461 29.3176 5.27737 28.6726 5.31461 28.6126C5.35186 28.5526 12.9426 28.5151 22.1722 28.5376L38.9627 28.5751L38.9329 29.4751Z" fill="#C4C3CA"/>
<path d="M24.4664 10.83C23.9077 11.3925 24.3919 12 25.405 12C26.2393 12 26.5224 11.82 26.5224 11.3025C26.5224 10.7175 24.9432 10.35 24.4664 10.83Z" fill="#C4C3CA"/>
<path d="M26.0754 13.59C25.2634 14.3325 25.3081 15.15 26.1499 15.15C26.9842 15.15 27.7813 13.56 27.1257 13.2075C26.7309 12.99 26.7458 12.9825 26.0754 13.59Z" fill="#C4C3CA"/>
<path d="M16.2726 6.93C15.9448 7.26 16.0789 7.755 16.6227 8.235C17.7252 9.21 18.5967 8.2575 17.5389 7.23C17.0249 6.7275 16.578 6.6225 16.2726 6.93Z" fill="#C4C3CA"/>
<path d="M14.1045 7.7775C13.5682 8.37 13.9034 9.75 14.5812 9.75C15.0207 9.75 15.1995 9.42 15.1995 8.625C15.1995 7.5525 14.6706 7.14 14.1045 7.7775Z" fill="#C4C3CA"/>
</svg>
