<svg width="25" height="24" viewBox="0 0 25 24" fill="none" xmlns="http://www.w3.org/2000/svg">
<path d="M16.5531 8.29C16.4601 8.19627 16.3495 8.12188 16.2277 8.07111C16.1058 8.02034 15.9751 7.9942 15.8431 7.9942C15.7111 7.9942 15.5804 8.02034 15.4585 8.07111C15.3367 8.12188 15.2261 8.19627 15.1331 8.29L12.8431 10.59L10.5531 8.29C10.3648 8.1017 10.1094 7.99591 9.8431 7.99591C9.5768 7.99591 9.3214 8.1017 9.1331 8.29C8.94479 8.47831 8.839 8.7337 8.839 9C8.839 9.2663 8.94479 9.5217 9.1331 9.71L11.4331 12L9.1331 14.29C9.03937 14.383 8.96497 14.4936 8.91421 14.6154C8.86344 14.7373 8.8373 14.868 8.8373 15C8.8373 15.132 8.86344 15.2627 8.91421 15.3846C8.96497 15.5064 9.03937 15.617 9.1331 15.71C9.22606 15.8037 9.33666 15.8781 9.45852 15.9289C9.58038 15.9797 9.71108 16.0058 9.8431 16.0058C9.97511 16.0058 10.1058 15.9797 10.2277 15.9289C10.3495 15.8781 10.4601 15.8037 10.5531 15.71L12.8431 13.41L15.1331 15.71C15.2261 15.8037 15.3367 15.8781 15.4585 15.9289C15.5804 15.9797 15.7111 16.0058 15.8431 16.0058C15.9751 16.0058 16.1058 15.9797 16.2277 15.9289C16.3495 15.8781 16.4601 15.8037 16.5531 15.71C16.6468 15.617 16.7212 15.5064 16.772 15.3846C16.8228 15.2627 16.8489 15.132 16.8489 15C16.8489 14.868 16.8228 14.7373 16.772 14.6154C16.7212 14.4936 16.6468 14.383 16.5531 14.29L14.2531 12L16.5531 9.71C16.6468 9.61704 16.7212 9.50644 16.772 9.38458C16.8228 9.26272 16.8489 9.13201 16.8489 9C16.8489 8.86799 16.8228 8.73729 16.772 8.61543C16.7212 8.49357 16.6468 8.38297 16.5531 8.29ZM19.9131 4.93C18.9906 3.9749 17.8872 3.21308 16.6671 2.68899C15.4471 2.1649 14.1349 1.88904 12.8071 1.8775C11.4793 1.86596 10.1625 2.11898 8.93356 2.62179C7.70459 3.1246 6.58807 3.86713 5.64915 4.80605C4.71022 5.74498 3.96769 6.8615 3.46488 8.09046C2.96207 9.31943 2.70905 10.6362 2.72059 11.964C2.73213 13.2918 3.00799 14.604 3.53208 15.824C4.05617 17.0441 4.81799 18.1475 5.7731 19.07C6.69557 20.0251 7.79901 20.7869 9.01905 21.311C10.2391 21.8351 11.5513 22.111 12.8791 22.1225C14.2069 22.134 15.5237 21.881 16.7526 21.3782C17.9816 20.8754 19.0981 20.1329 20.037 19.194C20.976 18.255 21.7185 17.1385 22.2213 15.9095C22.7241 14.6806 22.9771 13.3638 22.9656 12.036C22.9541 10.7082 22.6782 9.396 22.1541 8.17596C21.63 6.95592 20.8682 5.85247 19.9131 4.93ZM18.5031 17.66C17.1951 18.9694 15.4736 19.7848 13.6319 19.9673C11.7901 20.1498 9.9421 19.6881 8.40262 18.6608C6.86314 17.6335 5.72746 16.1042 5.18907 14.3335C4.65068 12.5628 4.7429 10.6601 5.45001 8.94979C6.15712 7.23943 7.43537 5.82715 9.06699 4.95356C10.6986 4.07998 12.5826 3.79913 14.3981 4.15888C16.2136 4.51862 17.8481 5.49669 19.0233 6.92646C20.1985 8.35623 20.8416 10.1492 20.8431 12C20.8467 13.0513 20.6417 14.0928 20.24 15.0644C19.8384 16.0359 19.248 16.9182 18.5031 17.66Z" fill="#C4C3CA" fill-opacity="0.7"/>
</svg>
